<svg width="47" height="48" viewBox="0 0 64 65" fill="none" xmlns="http://www.w3.org/2000/svg">
<path d="M50.3956 4H22.5521C19.4528 4 16.9449 6.50789 16.9449 9.60719V25.3324L3.82799 38.282C3.43497 38.6707 3.16629 39.1674 3.05605 39.7091C2.9458 40.2507 2.99896 40.8129 3.20878 41.3243C3.4186 41.8357 3.77562 42.2733 4.23453 42.5814C4.69345 42.8896 5.23356 43.0544 5.78633 43.0551V57.0033C5.78633 57.7432 6.08024 58.4527 6.6034 58.9759C7.12656 59.4991 7.83611 59.793 8.57598 59.793H53.2104C53.9502 59.793 54.6598 59.4991 55.1829 58.9759C55.7061 58.4527 56 57.7432 56 57.0033V9.6044C56 6.50789 53.4949 4 50.3956 4ZM27.8859 40.5751V54.2137H11.3656V38.6809L19.6983 30.4542L27.8859 38.8316V40.5751V40.5751ZM33.6828 23.5275H28.1035V17.9482H33.6828V23.5275ZM44.8414 45.8447H39.2621V40.2654H44.8414V45.8447ZM44.8414 34.6861H39.2621V29.1068H44.8414V34.6861ZM44.8414 23.5275H39.2621V17.9482H44.8414V23.5275Z" fill="#58A0DF"/>
</svg>
