<svg  width="344" height="233" viewBox="0 0 428 428" fill="none" xmlns="http://www.w3.org/2000/svg">
<path d="M377.359 115.355H285.185C285.185 115.355 294.327 90.3936 308.391 90.3936C322.455 90.3936 326.864 107.625 326.864 107.625C326.864 107.625 336.348 98.2602 344.146 98.2602C351.945 98.2602 358.698 110.629 358.698 110.629C358.698 110.629 369.732 103.978 377.359 115.355Z" fill="#EBEBEB"/>
<path opacity="0.5" d="M282.917 72.8114H239.843C239.843 72.8114 249.473 58.8672 257.057 58.8672C264.641 58.8672 266.875 68.1633 266.875 68.1633C266.875 68.1633 272.225 63.832 277.19 64.6024C282.155 65.3728 282.917 72.8114 282.917 72.8114Z" fill="#EBEBEB"/>
<path d="M252.597 166.296H168.709C168.709 166.296 180.205 140.616 192.489 139.041C204.772 137.466 210.662 158.104 210.662 158.104C210.662 158.104 218.588 150.794 224.82 150.794C231.051 150.794 235.862 160.415 235.862 160.415C235.862 160.415 248.326 153.824 252.597 166.296Z" fill="#EBEBEB"/>
<path opacity="0.5" d="M107.317 209.455H50.6411C50.6411 209.455 60.3824 190.872 70.9369 190.623C81.4914 190.375 87.0554 204.687 87.0554 204.687C87.0554 204.687 103.482 191.479 107.317 209.455Z" fill="#EBEBEB"/>
<path opacity="0.5" d="M350.104 238.824H293.437C293.437 238.824 303.178 220.241 313.733 219.992C324.287 219.744 329.851 234.057 329.851 234.057C329.851 234.057 346.278 220.848 350.104 238.824Z" fill="#EBEBEB"/>
<path d="M143.432 63.7292L152.908 79.5823L162.589 91.5663L184.16 106.076L191.231 107.77L203.574 112.667L212.357 111.811L224.384 106.076L239.021 107.77L250.577 104.723L257.708 99.4929L268.75 89.3749L293.857 82.8693L290.92 80.1815L265.181 86.8412L254.309 96.9677L243.952 103.037L227.474 102.874L221.02 102.198L207.717 108.892L198.798 106.076L182.465 100.006L166.15 88.1937L156.306 76.8859L148.217 62.6592L143.432 63.7292Z" fill="#C7C7C7"/>
<path d="M152.488 56.6507L151.29 82.6388L154.234 92.8509L152.762 107.283L151.29 120.055L156.246 142.516L153.763 164.935L158.566 188.749L156.066 213.641L161.947 222.295L166.989 219.684V216.577L161.947 209.31L162.974 188.749L161.947 178.802L157.641 162.555L161.947 137.663L157.264 118.967L157.898 92.072L154.5 80.2763L155.475 55.9316L152.488 56.6507Z" fill="#DBDBDB"/>
<path d="M152.625 142.85C152.522 143.706 153.224 165.311 154.234 194.535C155.005 216.577 155.946 242.967 156.802 268.074C157.016 274.066 157.239 314.298 157.444 320.11C158.343 345.037 159.156 367.19 159.627 380.304C159.918 388.273 160.089 392.939 160.089 392.939H127.664C127.664 392.939 128.298 377.659 129.213 355.146C130.121 332.984 131.302 269.546 132.423 241.118C133.973 202.187 135.411 164.575 135.89 147.926C136.027 143.337 136.087 140.341 136.061 139.366C135.942 135.402 130.48 123.504 124.137 110.527C114.721 91.2926 103.379 69.6701 104.655 67.9752C106.778 65.1504 106.743 65.6726 107.754 66.6313C108.764 67.59 126.868 108.37 133.356 108.764C139.845 109.157 146.856 80.5926 147.6 79.1974C148.345 77.8021 151.11 78.504 150.947 79.4884C150.904 79.7281 150.185 82.1591 149.124 85.7886C147.968 89.7861 146.393 95.2046 144.844 100.786C144.84 100.8 144.84 100.814 144.844 100.828C144.613 101.684 144.39 102.498 144.168 103.328C143.637 105.314 143.132 107.283 142.661 109.166C140.949 116.014 139.734 121.869 140.093 123.581C141.163 128.46 143.945 133.939 147.669 133.776C149.877 133.69 154.14 126.971 158.352 119.361C163.839 109.44 169.249 97.9609 169.908 97.764C170.112 97.69 170.325 97.6439 170.541 97.627C171.936 97.4986 174.136 98.0122 173.306 99.0394C172.373 100.238 152.933 140.085 152.625 142.85Z" fill="#EBEBEB"/>
<path d="M152.779 392.956H148.567C145.828 380.176 146.042 367.002 146.479 353.914C146.992 338.574 148.302 289.029 149.226 273.715C149.226 273.629 149.261 273.546 149.322 273.485C149.383 273.424 149.465 273.39 149.552 273.39C149.638 273.39 149.721 273.424 149.782 273.485C149.843 273.546 149.877 273.629 149.877 273.715C149.398 288.858 149.303 338.24 149.971 353.383C150.562 366.608 152.171 379.748 152.779 392.956Z" fill="#DBDBDB"/>
<path d="M144.211 257.409C143.355 247.214 141.702 237.096 140.256 226.978C140.153 226.276 138.955 226.438 139.015 227.149C140.727 247.804 141.805 302.828 139.631 323.483C138.538 333.662 137.967 343.891 137.919 354.128C137.919 359.264 138.047 364.4 138.296 369.485C138.527 374.458 138.561 379.611 139.485 384.507C139.657 385.406 140.966 385.141 141.018 384.302C141.3 379.046 140.812 373.696 140.846 368.423C140.846 363.484 141.026 358.536 141.257 353.597C141.737 343.171 142.841 332.814 143.825 322.43C144.733 312.184 145.067 267.672 144.211 257.409Z" fill="#DBDBDB"/>
<path d="M156.836 268.083C151.264 253.89 151.598 238.568 152.291 223.306C152.736 213.701 153.384 204.114 154.234 194.544C155.004 216.569 155.937 242.976 156.836 268.083Z" fill="#DBDBDB"/>
<path d="M148.858 224.102C148.961 214.095 147.771 204.414 146.633 194.484C146.606 194.391 146.55 194.309 146.473 194.251C146.396 194.193 146.302 194.161 146.205 194.161C146.108 194.161 146.014 194.193 145.937 194.251C145.86 194.309 145.803 194.391 145.777 194.484C145.511 204.431 145.195 214.172 146.179 224.102C147.164 234.031 147.609 243.875 148.602 253.728C148.602 254.027 149.09 254.044 149.09 253.728C149.184 243.858 148.764 233.98 148.858 224.102Z" fill="#DBDBDB"/>
<path d="M141.531 173.948C141.599 169.18 142.25 164.224 141.839 159.473C141.762 158.515 140.221 158.129 140.016 159.234C139.16 163.83 139.357 168.744 139.16 173.409C138.963 178.074 138.415 182.697 138.175 187.353C137.936 192.01 137.893 196.658 137.996 201.289C138.107 206.382 139.006 211.278 139.614 216.312C139.614 216.418 139.656 216.521 139.731 216.596C139.807 216.672 139.909 216.714 140.016 216.714C140.123 216.714 140.225 216.672 140.3 216.596C140.376 216.521 140.418 216.418 140.418 216.312C140.829 211.647 141.599 207.058 141.762 202.367C141.925 197.677 141.95 192.695 141.865 187.884C141.745 183.244 141.462 178.588 141.531 173.948Z" fill="#DBDBDB"/>
<path d="M150.22 171.551C149.886 165.713 150.048 159.935 149.971 154.097C149.971 153.627 149.227 153.498 149.115 153.986C147.947 159.768 147.373 165.653 147.403 171.551C147.344 177.235 147.609 183.775 149.578 189.159C149.637 189.335 149.756 189.484 149.913 189.582C150.071 189.679 150.257 189.719 150.441 189.693C150.624 189.668 150.793 189.579 150.919 189.443C151.044 189.306 151.118 189.13 151.127 188.945C151.452 183.236 150.545 177.269 150.22 171.551Z" fill="#DBDBDB"/>
<path d="M134.777 280.392C134.075 288.456 132.851 330.682 131.627 338.694C130.771 344.164 130.044 349.66 129.213 355.138C130.121 332.976 131.302 269.538 132.423 241.11C135.873 253.873 135.933 267.167 134.777 280.392Z" fill="#DBDBDB"/>
<path d="M136.104 392.956H132.235C132.167 391.689 131.679 390.199 131.542 389.138C131.336 387.571 131.156 385.988 131.062 384.413C130.918 380.603 130.967 376.789 131.208 372.985C131.525 365.7 131.567 358.193 133.108 351.046C133.228 350.489 134.041 350.652 134.058 351.174C134.332 359.52 133.75 367.763 134.632 376.101C135.068 380.252 135.573 384.387 135.873 388.547C136.07 390.008 136.147 391.482 136.104 392.956Z" fill="#DBDBDB"/>
<path d="M159.661 380.313C159.079 377.188 158.66 374.013 158.206 370.897C157.418 365.513 156.785 360.111 156.366 354.684C155.912 348.915 155.826 343.145 155.912 337.359C155.997 331.709 156.896 326.162 157.179 320.538C157.191 320.449 157.228 320.365 157.286 320.295C157.343 320.226 157.419 320.174 157.504 320.145C158.36 345.046 159.216 367.165 159.661 380.313Z" fill="#DBDBDB"/>
<path d="M149.715 260.695C149.715 260.507 149.355 260.507 149.329 260.695C149.068 262.798 149.068 264.926 149.329 267.029C149.339 267.078 149.365 267.121 149.404 267.152C149.442 267.184 149.49 267.201 149.539 267.201C149.588 267.201 149.636 267.184 149.675 267.152C149.713 267.121 149.739 267.078 149.749 267.029C149.994 264.924 149.983 262.797 149.715 260.695Z" fill="#DBDBDB"/>
<path d="M141.771 142.704C141.599 142.242 140.786 142.113 140.692 142.704C140.093 146.333 140.555 150.288 140.898 153.917C140.949 154.482 141.822 154.696 141.95 154.063C142.704 150.442 143.055 146.256 141.771 142.704Z" fill="#DBDBDB"/>
<path d="M153.695 131.491C148.105 137.252 144.887 145.837 145.7 153.798C145.7 154.286 146.556 154.5 146.624 153.927C147.3 150.224 148.178 146.56 149.252 142.953C150.425 138.964 152.377 135.685 154.474 132.141C154.56 132.038 154.602 131.905 154.59 131.771C154.578 131.637 154.513 131.513 154.41 131.427C154.306 131.34 154.173 131.299 154.039 131.311C153.905 131.323 153.781 131.387 153.695 131.491Z" fill="#DBDBDB"/>
<path d="M135.89 147.917C136.027 143.329 136.087 140.333 136.061 139.357C135.941 135.394 130.48 123.496 124.137 110.519C129.205 116.382 134.015 122.417 136.541 129.881C138.552 135.771 137.217 141.9 135.89 147.917Z" fill="#DBDBDB"/>
<path d="M133.784 115.689C127.792 106.273 121.843 96.7455 116.356 86.9871C116.185 86.6961 115.672 86.893 115.791 87.2268C119.59 97.936 125.568 107.741 133.348 116.023C133.397 116.063 133.458 116.085 133.522 116.086C133.586 116.087 133.648 116.067 133.698 116.028C133.748 115.99 133.784 115.935 133.8 115.873C133.816 115.812 133.81 115.747 133.784 115.689Z" fill="#DBDBDB"/>
<path d="M141.06 130.969C140.204 127.545 138.159 124.377 138.287 120.774C138.398 117.478 138.98 114.174 139.211 110.887C139.207 110.829 139.182 110.774 139.142 110.732C139.102 110.689 139.048 110.662 138.991 110.654C138.933 110.646 138.874 110.658 138.824 110.688C138.774 110.718 138.735 110.764 138.715 110.818C137.996 114.345 137.003 118.111 137.003 121.724C137.003 125.071 138.835 128.401 140.581 131.14C140.592 131.171 140.61 131.2 140.632 131.225C140.654 131.25 140.682 131.27 140.712 131.284C140.742 131.298 140.775 131.307 140.808 131.308C140.841 131.31 140.875 131.305 140.906 131.294C140.938 131.283 140.967 131.265 140.991 131.243C141.016 131.22 141.036 131.193 141.051 131.163C141.065 131.133 141.073 131.1 141.075 131.067C141.077 131.033 141.072 131 141.06 130.969Z" fill="#DBDBDB"/>
<path d="M160.928 119.789C159.145 122.313 157.652 125.029 156.477 127.887C156.348 128.204 156.836 128.477 157.059 128.221C159.108 125.838 160.667 123.075 161.647 120.089C161.784 119.644 161.133 119.447 160.928 119.789Z" fill="#DBDBDB"/>
<path d="M170.558 97.9178C167.99 105.485 164.078 113.583 158.386 119.318C163.873 109.397 169.283 97.9178 169.942 97.7209C170.146 97.6469 170.359 97.6009 170.575 97.584C170.601 97.6947 170.595 97.8103 170.558 97.9178Z" fill="#DBDBDB"/>
<path d="M149.124 85.7634C147.968 89.761 146.393 95.1794 144.844 100.761C144.84 100.775 144.84 100.789 144.844 100.803C144.579 101.659 144.356 102.455 144.168 103.303C143.637 105.289 143.132 107.258 142.661 109.141C142.657 109.115 142.657 109.089 142.661 109.064C141.446 105.203 142.25 101.625 143.663 97.9358C145.12 93.7196 146.954 89.6429 149.141 85.7549L149.124 85.7634Z" fill="#DBDBDB"/>
<path d="M113.386 83.3406C112.418 79.2832 110.21 75.1829 107.984 71.6904C107.882 71.5364 107.599 71.6305 107.676 71.8188C109.045 75.8831 110.781 79.8142 112.864 83.5632C112.902 83.6166 112.958 83.6554 113.022 83.673C113.085 83.6906 113.153 83.6862 113.213 83.6603C113.274 83.6344 113.324 83.5887 113.356 83.5306C113.387 83.4725 113.398 83.4055 113.386 83.3406Z" fill="#DBDBDB"/>
<path d="M288.746 77.4256C288.883 78.0676 291.134 80.49 294.558 83.9568C301.458 90.9418 313.108 102.155 321.754 111.631C328.139 118.625 332.882 124.677 332.882 127.373C332.882 129.325 332.214 143.517 331.17 163.993C330.836 170.841 330.459 178.314 330.048 186.309C329.971 187.755 329.903 189.219 329.826 190.7C329.055 205.894 328.199 222.603 327.335 239.415C324.287 298.479 321.12 392.939 321.12 392.939H387.546C387.546 392.939 369.57 129.291 369.57 126.192C369.57 123.093 375.151 117.478 377.941 115.389C380.732 113.301 400.608 116.416 403.467 116.802C406.326 117.187 405.95 113.378 404.991 112.693C404.032 112.008 386.159 111.52 385.808 109.423C385.457 107.326 400.035 97.4902 401.781 96.0949C403.527 94.6996 400.925 91.7122 398.854 92.0632C398.1 92.183 393.598 95.8552 388.025 100.306C380.92 105.965 372.189 112.864 367.224 115.389C365.05 116.511 363.595 116.784 363.321 115.757C363.141 115.115 363.321 113.583 363.792 111.392C364.827 106.401 367.216 97.9867 370.109 88.7761C376.212 68.9169 384.216 45.3684 384.216 44.324C384.216 42.612 380.527 41.893 379.337 43.6307C377.522 46.2843 362.61 94.1347 357.389 101.471C352.167 108.807 343.787 113.874 337.898 109.175C329.218 102.258 315.924 43.9816 314.88 41.893C313.836 39.8044 310.352 41.1911 310.001 44.324C309.907 45.18 311.148 49.46 312.877 55.1781C316.609 67.5559 322.61 86.8501 322.404 94.186C322.353 95.7953 322.019 96.8225 321.3 97.0964C315.719 99.1851 294.687 75.2513 292.247 74.207C289.808 73.1627 288.472 76.1073 288.746 77.4256Z" fill="#EBEBEB"/>
<path d="M331.657 392.956H340.448C341.57 373.182 339.747 353.169 338.471 333.472C337.743 322.464 336.887 277.242 336.622 266.208C336.365 254.986 337.324 243.849 337.358 232.653C337.358 231.685 335.843 231.446 335.646 232.422C333.421 242.95 333.326 254.241 333.035 264.95C332.898 269.966 332.824 274.988 332.813 280.015C331.4 306.243 331.392 366.702 331.657 392.956ZM336.485 391.038C336.485 390.362 336.485 389.677 336.485 389.001C336.554 389.797 336.605 390.602 336.682 391.398C336.627 391.273 336.561 391.152 336.485 391.038Z" fill="#DBDBDB"/>
<path d="M345.43 222.047C347.681 232.824 349.616 243.541 349.847 254.575C350.07 265.326 350.138 310.925 348.478 321.565C348.323 322.507 346.928 322.207 346.885 321.351C346.569 315.942 346.791 276.257 346.671 270.847C346.552 265.438 346.158 260.002 345.815 254.583C345.139 243.789 345.105 232.969 344.446 222.175C344.432 222.046 344.469 221.917 344.549 221.815C344.629 221.713 344.746 221.646 344.875 221.629C345.004 221.612 345.134 221.647 345.238 221.725C345.342 221.803 345.411 221.918 345.43 222.047Z" fill="#DBDBDB"/>
<path d="M349.925 385.689C349.922 388.125 350.131 390.556 350.549 392.956H355.985C356.153 391.158 356.199 389.35 356.122 387.546C356.122 381.76 355.865 375.99 355.968 370.204C356.148 358.579 357.509 347.092 359.092 335.578C362.011 314.375 370.332 258.675 365.786 237.138C365.752 237 365.668 236.879 365.55 236.798C365.433 236.718 365.29 236.683 365.148 236.701C365.007 236.719 364.877 236.788 364.783 236.896C364.689 237.003 364.638 237.141 364.639 237.284C365.726 259.54 359.135 314.666 353.511 335.921C350.738 346.475 349.907 357.501 349.634 368.38C349.531 374.124 349.548 379.919 349.925 385.689Z" fill="#DBDBDB"/>
<path d="M358.236 225.222C358.382 224.837 359.092 224.846 359.024 225.325C358.422 230.066 358.136 234.842 358.168 239.62C358.346 244.456 358.186 249.299 357.688 254.112C357.603 254.797 356.438 255.157 356.319 254.301C355.009 245.133 354.906 233.996 358.236 225.222Z" fill="#DBDBDB"/>
<path d="M373.319 336.964C372.155 322.104 369.647 306.953 369.69 291.982C369.69 291.656 370.04 291.588 370.1 291.905C373.208 307.107 376.169 322.96 378.113 338.522C379.825 352.449 380.929 369.278 376.752 382.615C376.152 384.515 373.961 383.471 373.987 381.596C374.081 374.166 374.843 366.847 374.637 359.34C374.432 351.833 373.892 344.429 373.319 336.964Z" fill="#DBDBDB"/>
<path d="M362.79 390.02C362.79 390.876 362.79 391.903 362.79 392.956H366.95C367.019 391.903 367.087 390.902 367.19 390.02C367.673 385.369 367.811 380.688 367.601 376.016C367.301 366.6 367.37 357.184 366.069 347.862C365.966 347.151 364.939 347.408 364.896 348.025C364.151 357.338 364.151 366.711 363.338 376.016C362.873 380.669 362.69 385.345 362.79 390.02Z" fill="#DBDBDB"/>
<path d="M365.264 153.884C365.281 153.741 365.351 153.609 365.459 153.513C365.567 153.417 365.706 153.364 365.85 153.364C365.995 153.364 366.134 153.417 366.242 153.513C366.35 153.609 366.419 153.741 366.437 153.884C366.788 163.822 366.548 173.786 366.882 183.733C367.24 194.159 368.237 204.553 369.869 214.857C372.788 233.406 377.762 251.742 372.275 270.343C372.248 270.4 372.203 270.445 372.146 270.472C372.089 270.498 372.025 270.504 371.964 270.488C371.904 270.471 371.851 270.434 371.815 270.382C371.78 270.331 371.763 270.268 371.77 270.206C375.724 251.117 368.919 231.686 366.634 212.794C364.42 193.237 363.961 173.522 365.264 153.884Z" fill="#DBDBDB"/>
<path d="M348.889 133.279C348.853 133.111 348.883 132.935 348.973 132.788C349.062 132.641 349.204 132.534 349.37 132.488C349.536 132.442 349.713 132.462 349.865 132.542C350.018 132.622 350.134 132.757 350.19 132.92C354.418 146.779 355.942 161.51 356.618 175.951C357.016 183.257 356.905 190.582 356.284 197.873C355.574 205.44 353.288 212.733 352.98 220.343C352.967 220.43 352.923 220.509 352.856 220.567C352.789 220.624 352.704 220.655 352.616 220.655C352.529 220.655 352.443 220.624 352.377 220.567C352.31 220.509 352.266 220.43 352.253 220.343C351.114 206.014 353.246 191.513 353.228 177.167C353.211 162.366 351.037 147.883 348.889 133.279Z" fill="#DBDBDB"/>
<path d="M337.067 184.897C337.838 178.99 339.182 173.187 340.363 167.357C341.604 161.254 342.118 154.86 343.838 148.876C344.061 148.089 345.354 148.209 345.302 149.073C344.985 155.279 343.385 161.502 342.58 167.657C341.852 173.161 341.125 178.674 340.714 184.212C339.87 196.164 340.18 208.169 341.638 220.061C341.724 220.763 340.577 220.917 340.414 220.224C337.632 208.522 335.501 197.018 337.067 184.897Z" fill="#DBDBDB"/>
<path d="M360.624 129.513C360.621 129.385 360.665 129.26 360.748 129.163C360.83 129.065 360.946 129.001 361.073 128.983C361.2 128.965 361.329 128.994 361.436 129.065C361.542 129.136 361.619 129.244 361.652 129.368C363.8 137.286 361.052 146.103 359.94 153.978C359.88 154.406 359.126 154.406 359.084 153.978C357.979 145.906 360.376 137.611 360.624 129.513Z" fill="#DBDBDB"/>
<path d="M335.552 150.16C336.211 146.975 336.947 143.808 337.461 140.59C337.915 136.897 338.172 133.182 338.231 129.462C338.231 128.802 339.276 128.606 339.43 129.299C340.765 135.291 339.704 142.053 338.882 148.071C337.923 155.159 335.809 162.229 335.458 169.385C335.458 169.517 335.406 169.643 335.313 169.736C335.219 169.83 335.093 169.882 334.961 169.882C334.83 169.882 334.704 169.83 334.61 169.736C334.517 169.643 334.465 169.517 334.465 169.385C333.869 162.958 334.236 156.479 335.552 150.16Z" fill="#DBDBDB"/>
<path d="M336.639 112.735C339.002 113.934 340.851 115.723 343.684 115.8C346.517 115.877 349.231 114.319 351.585 112.847C351.97 112.607 352.441 113.181 352.081 113.497C349.556 115.774 346.8 118.402 343.153 118.317C340.029 118.239 337.392 116.117 335.835 113.54C335.771 113.428 335.746 113.298 335.764 113.17C335.781 113.042 335.84 112.923 335.931 112.832C336.023 112.741 336.141 112.682 336.269 112.665C336.397 112.647 336.527 112.672 336.639 112.735Z" fill="#DBDBDB"/>
<path d="M326.992 94.5372C329.303 99.4335 331.221 104.578 333.19 109.62C333.267 109.825 332.976 109.971 332.839 109.825C329.029 105.853 327.352 100.058 326.53 94.7255C326.487 94.4772 326.847 94.2547 326.992 94.5372Z" fill="#DBDBDB"/>
<path d="M325.682 91.1729C325.719 91.1729 325.754 91.1873 325.779 91.213C325.805 91.2386 325.819 91.2735 325.819 91.3098C325.819 91.3461 325.805 91.381 325.779 91.4067C325.754 91.4323 325.719 91.4468 325.682 91.4468C325.646 91.4468 325.611 91.4323 325.586 91.4067C325.56 91.381 325.545 91.3461 325.545 91.3098C325.545 91.2735 325.56 91.2386 325.586 91.213C325.611 91.1873 325.646 91.1729 325.682 91.1729Z" fill="#DBDBDB"/>
<path d="M320.144 101.119C323.174 103.011 325.46 105.956 327.711 108.669C330.168 111.623 332.847 114.216 335.475 117.015C335.663 117.212 335.475 117.597 335.201 117.495C331.94 116.313 329.629 113.446 327.497 110.827C325.055 107.677 322.367 104.726 319.459 102.001C319.367 101.903 319.313 101.775 319.306 101.641C319.3 101.506 319.342 101.374 319.424 101.267C319.507 101.161 319.625 101.087 319.757 101.06C319.889 101.033 320.026 101.054 320.144 101.119Z" fill="#DBDBDB"/>
<path d="M294.558 83.957C301.457 90.942 313.108 102.156 321.753 111.632C320.752 109.56 319.673 107.54 318.492 105.64C318.067 104.809 317.559 104.023 316.977 103.294C314.991 100.368 312.618 97.7249 309.923 95.436C305.029 91.3145 299.898 87.4817 294.558 83.957Z" fill="#DBDBDB"/>
<path d="M354.427 118.985C355.506 113.344 358.057 108.464 360.359 103.268C360.693 102.524 361.866 103.054 361.66 103.816C360.282 108.747 359.272 113.78 357.945 118.736C356.559 123.941 355.266 129.094 355.215 134.495C355.215 134.863 354.624 134.975 354.556 134.59C353.512 129.444 353.468 124.146 354.427 118.985Z" fill="#DBDBDB"/>
<path d="M343.333 122.862C346.492 129.077 346.235 136.13 345.302 142.824C345.233 143.261 344.591 143.124 344.566 142.73C344.138 136.173 342.52 129.684 342.409 123.11C342.409 123.002 342.446 122.896 342.512 122.81C342.579 122.724 342.671 122.662 342.776 122.634C342.881 122.606 342.993 122.613 343.093 122.654C343.194 122.695 343.278 122.768 343.333 122.862Z" fill="#DBDBDB"/>
<path d="M371.984 116.887C372.335 116.681 372.626 117.135 372.395 117.417C369.61 120.712 367.854 124.751 367.344 129.033C366.848 133.253 367.027 137.516 366.488 141.745C366.488 142.019 366 142.156 365.949 141.813C364.699 133.296 363.261 121.98 371.984 116.887Z" fill="#DBDBDB"/>
<path d="M367.224 115.389C367.281 115.469 367.357 115.535 367.445 115.58C367.533 115.624 367.63 115.647 367.729 115.646C376.443 115.432 382.666 106.23 387.931 100.435C387.963 100.4 387.991 100.363 388.016 100.323C380.92 105.964 372.189 112.864 367.224 115.389Z" fill="#DBDBDB"/>
<path d="M363.8 111.383C364.836 106.392 367.224 97.9777 370.117 88.7671C370.023 88.6917 369.912 88.6394 369.793 88.6144C369.674 88.5894 369.552 88.5924 369.435 88.6232C369.317 88.6539 369.209 88.7116 369.118 88.7915C369.027 88.8715 368.956 88.9716 368.91 89.0839C368.628 89.6916 361.232 103.148 363.8 111.383Z" fill="#DBDBDB"/>
<path d="M322.404 94.1602C323.593 91.6729 324.134 88.926 323.979 86.1737C323.763 82.7919 323.125 79.4504 322.079 76.227C319.948 69.3362 317.576 61.1614 313.074 55.3748C313.021 55.2995 312.955 55.2355 312.877 55.1865C316.609 67.5643 322.61 86.85 322.404 94.1602Z" fill="#DBDBDB"/>
<path d="M360.581 206.844C360.667 206.408 361.24 206.579 361.283 206.939C361.873 211.641 361.453 216.416 360.051 220.943C359.871 221.593 358.767 221.499 358.827 220.772C359.155 216.1 359.74 211.451 360.581 206.844Z" fill="#DBDBDB"/>
<path d="M345.713 339.456C345.761 335.83 346.168 332.217 346.928 328.67C347.057 328.14 347.784 328.302 347.836 328.799C348.076 332.763 347.976 336.741 347.536 340.689C347.245 344.284 347.202 347.948 346.611 351.509C346.492 352.176 345.524 351.962 345.482 351.354C345.329 347.387 345.406 343.414 345.713 339.456Z" fill="#DBDBDB"/>
<path d="M371.401 112.95L372.968 108.893L378.207 106.008L381.613 108.019L387.118 122.52L386.073 133.785L386.33 142.165L380.569 160.775L381.613 177.681L383.711 191.693L378.737 208.197L376.897 215.79L376.375 220.25L372.968 221.294L373.233 213.436L379.259 198.011L380.834 189.065L378.737 172.562L378.207 157.89L383.454 142.953L383.976 139.546L382.923 129.334L383.188 121.733L379.645 112.95L377.684 111.906L371.401 112.95Z" fill="#DBDBDB"/>
<path d="M159.738 53.2865L159.43 61.2387L164.189 83.683L169.428 86.0456L176.507 80.0194L180.693 70.5862L185.315 50.8469L190.186 49.2119L189.339 55.1269L181.224 80.2761L171.26 88.9217L162.092 87.3553L159.43 81.2349L156.4 69.0112V58.3882L155.475 55.9315L152.488 56.6506L154.499 51.72L159.738 53.2865Z" fill="#DBDBDB"/>
<path d="M322.13 96.0696L322.524 94.8199L322.31 91.9266L318.603 91.3359L316.943 95.9241L317.687 104.698L318.869 120.688L316.943 136.781L317.816 161.297L318.15 177.047L320.178 188.809L317.559 196.932L315.984 200.074L316.489 202.282H318.15L319.913 200.339L323.585 188.021L320.178 172.04L319.391 151.607L318.603 136.404L320.957 123.308L320.435 104.963L321.3 97.1054L322.13 96.0696Z" fill="#DBDBDB"/>
<path d="M196.152 46.8998C196.015 47.1224 194.098 47.8585 191.016 48.9371C180.042 52.7292 154.328 60.7413 140.144 65.7147C135.008 67.538 131.345 68.9504 130.506 69.6009C126.714 72.5798 110.219 94.7502 107.779 103.678C107.548 104.534 107.419 107.505 107.377 112.238C107.223 126.944 107.89 158.539 108.858 194.346C109.106 203.496 109.371 212.938 109.645 222.431C110.065 236.846 110.501 251.415 110.955 265.402V265.505C110.955 266.678 111.032 267.842 111.057 269.006C111.053 269.043 111.053 269.08 111.057 269.117C111.503 283.207 111.913 330.852 112.333 342.802C113.309 372.334 114.045 392.955 114.045 392.955H22.2988C22.2988 392.955 24.396 376.186 27.5033 351.191C28.7017 341.612 34.5396 260.506 36.1404 247.615C36.1404 247.615 37.6041 235.819 38.3317 229.896C39.376 221.704 40.3604 213.486 41.3619 205.44C41.8755 201.245 42.3863 197.094 42.8942 192.985C43.3108 189.629 43.7245 186.311 44.1354 183.03C44.7802 177.717 45.4137 172.535 46.0357 167.485L46.1384 166.671C46.4295 164.326 46.712 162.006 46.9944 159.738C46.9944 159.678 46.9944 159.635 46.9944 159.601C46.9963 159.584 46.9963 159.566 46.9944 159.549C51.1118 125.951 54.0735 101.341 54.0735 99.9547C54.0735 95.5121 34.5995 44.8026 34.5995 44.8026L39.1192 42.0891C39.1192 42.0891 59.1582 83.6821 68.1291 87.7481C69.2389 88.2585 70.4099 88.6239 71.613 88.8353C79.4625 90.2562 87.1579 84.872 91.0955 77.7929C94.2371 72.1433 99.1591 59.1406 102.617 50.9401C104.15 47.3193 105.391 44.64 106.041 43.9381C106.692 43.2361 110.244 43.3902 110.373 44.4773C111.057 50.8203 98.7396 77.2022 101.984 80.4293C102.96 81.3966 107.505 77.6045 113.471 71.7581C122.468 63.0012 134.538 49.6476 142.498 40.8907C142.512 40.8654 142.529 40.8423 142.55 40.8222C146.975 35.9601 150.117 32.4933 150.725 32.0225C153.156 30.1222 155.193 34.2909 154.243 35.2668C153.455 36.0629 132.603 58.5243 133.408 61.5032C134.212 64.4821 192.908 42.3031 194.312 43.3817C195.716 44.4602 196.966 45.5388 196.152 46.8998Z" fill="#58A0DF"/>
<g opacity="0.7">
<path opacity="0.7" d="M196.152 46.8998C196.015 47.1224 194.098 47.8585 191.016 48.9371C180.042 52.7292 154.328 60.7413 140.144 65.7147C135.008 67.538 131.345 68.9504 130.506 69.6009C126.714 72.5798 110.219 94.7502 107.779 103.678C107.548 104.534 107.419 107.505 107.377 112.238C107.223 126.944 107.89 158.539 108.858 194.346C109.106 203.496 109.371 212.938 109.645 222.431C110.065 236.846 110.501 251.415 110.955 265.402V265.505C110.955 266.678 111.032 267.842 111.057 269.006C111.053 269.043 111.053 269.08 111.057 269.117C111.503 283.207 111.913 330.852 112.333 342.802C113.309 372.334 114.045 392.955 114.045 392.955H22.2988C22.2988 392.955 24.396 376.186 27.5033 351.191C28.7017 341.612 34.5396 260.506 36.1404 247.615C36.1404 247.615 37.6041 235.819 38.3317 229.896C39.376 221.704 40.3604 213.486 41.3619 205.44C41.8755 201.245 42.3863 197.094 42.8942 192.985C43.3108 189.629 43.7245 186.311 44.1354 183.03C44.7802 177.717 45.4137 172.535 46.0357 167.485L46.1384 166.671C46.4295 164.326 46.712 162.006 46.9944 159.738C46.9944 159.678 46.9944 159.635 46.9944 159.601C46.9963 159.584 46.9963 159.566 46.9944 159.549C51.1118 125.951 54.0735 101.341 54.0735 99.9547C54.0735 95.5121 34.5995 44.8026 34.5995 44.8026L39.1192 42.0891C39.1192 42.0891 59.1582 83.6821 68.1291 87.7481C69.2389 88.2585 70.4099 88.6239 71.613 88.8353C79.4625 90.2562 87.1579 84.872 91.0955 77.7929C94.2371 72.1433 99.1591 59.1406 102.617 50.9401C104.15 47.3193 105.391 44.64 106.041 43.9381C106.692 43.2361 110.244 43.3902 110.373 44.4773C111.057 50.8203 98.7396 77.2022 101.984 80.4293C102.96 81.3966 107.505 77.6045 113.471 71.7581C122.468 63.0012 134.538 49.6476 142.498 40.8907C142.512 40.8654 142.529 40.8423 142.55 40.8222C146.975 35.9601 150.117 32.4933 150.725 32.0225C153.156 30.1222 155.193 34.2909 154.243 35.2668C153.455 36.0629 132.603 58.5243 133.408 61.5032C134.212 64.4821 192.908 42.3031 194.312 43.3817C195.716 44.4602 196.966 45.5388 196.152 46.8998Z" fill="black"/>
</g>
<g opacity="0.1">
<path opacity="0.1" d="M67.6239 208.008C67.3072 219.504 65.4411 230.889 63.0358 242.12C58.6702 262.509 52.5926 316.754 48.6464 337.238C46.5434 347.992 45.0147 358.85 44.0668 369.766C43.6046 375.302 43.2507 380.854 43.0054 386.424C42.9112 388.59 42.8598 390.772 42.7828 392.947H36.3628C36.4655 389.523 36.7309 386.099 36.9021 382.718C37.2274 376.546 37.6725 370.383 38.2974 364.228C40.4117 343.256 45.5306 289.071 51.5568 268.929C57.5488 248.925 63.0614 228.826 65.347 208.016C65.5353 206.596 67.701 206.527 67.6239 208.008Z" fill="black"/>
<path opacity="0.1" d="M64.2003 125.335C61.6323 135.076 59.518 144.929 57.1726 154.721C54.8271 164.514 52.3019 174.315 50.7954 184.296C47.8507 203.821 48.8437 223.381 50.3417 242.966C50.3959 243.141 50.5044 243.293 50.6515 243.402C50.7986 243.51 50.9765 243.568 51.1592 243.568C51.3418 243.568 51.5197 243.51 51.6668 243.402C51.8139 243.293 51.9225 243.141 51.9766 242.966C52.2591 223.484 52.0622 203.796 54.5874 184.442C57.1554 164.685 62.1031 145.314 65.5186 125.694C65.6983 124.847 64.4657 124.47 64.2003 125.335Z" fill="black"/>
<path opacity="0.1" d="M68.0437 177.876C67.261 170.038 67.0208 162.156 67.3247 154.285C67.328 154.157 67.2841 154.032 67.2014 153.934C67.1187 153.836 67.0028 153.772 66.876 153.754C66.7491 153.736 66.62 153.766 66.5134 153.837C66.4067 153.908 66.3299 154.015 66.2975 154.139C64.4143 161.338 65.3559 169.35 65.7496 176.686C66.1776 184.561 65.7497 192.377 65.9465 200.235C65.9458 200.416 66.0109 200.591 66.1297 200.727C66.2484 200.863 66.4128 200.952 66.592 200.976C66.7712 201 66.9531 200.958 67.1036 200.858C67.2542 200.758 67.3632 200.606 67.4103 200.432C70.1067 193.37 68.797 185.186 68.0437 177.876Z" fill="black"/>
<path opacity="0.1" d="M60.2028 185.572C58.799 189.981 58.4908 194.988 58.1313 199.568C57.776 204.59 57.8018 209.632 58.2083 214.651C58.2282 214.749 58.2817 214.838 58.3597 214.902C58.4378 214.966 58.5355 215.001 58.6363 215.001C58.7372 215.001 58.8349 214.966 58.9129 214.902C58.991 214.838 59.0445 214.749 59.0643 214.651C59.5266 209.823 59.9203 204.995 60.3997 200.167C60.8791 195.339 61.6923 190.537 61.6495 185.778C61.6255 185.615 61.5496 185.465 61.433 185.349C61.3165 185.233 61.1656 185.158 61.0029 185.135C60.8402 185.111 60.6743 185.142 60.5301 185.22C60.3859 185.299 60.2711 185.423 60.2028 185.572Z" fill="black"/>
<path opacity="0.1" d="M104.098 379.49C102.711 368.208 101.975 356.781 100.948 345.447C99.9209 334.114 99.1163 288.763 98.7568 277.498C98.3972 266.233 98.2004 254.977 98.4486 243.712C98.6968 232.301 99.9637 220.822 99.8696 209.472C99.8625 209.2 99.759 208.939 99.5775 208.736C99.3961 208.534 99.1485 208.402 98.8791 208.365C98.6096 208.328 98.3357 208.388 98.1063 208.534C97.877 208.681 97.707 208.903 97.6268 209.163C94.9133 219.898 94.2028 231.514 93.4153 242.547C92.5395 254.196 92.2538 265.881 92.5593 277.558C92.9103 289.02 93.6464 334.739 95.1273 346.123C96.6082 357.508 99.0992 368.628 101.873 379.85C102.172 380.997 104.252 380.783 104.098 379.49Z" fill="black"/>
<path opacity="0.1" d="M89.1781 392.955H83.5371C82.9807 389.942 82.6297 386.903 82.3216 383.984C81.6611 376.353 81.4325 368.691 81.6368 361.035C81.7909 344.497 83.2632 293.873 84.0165 277.386C84.0389 277.151 84.1482 276.933 84.3231 276.774C84.498 276.615 84.7259 276.526 84.9623 276.526C85.1987 276.526 85.4267 276.615 85.6016 276.774C85.7765 276.933 85.8858 277.151 85.9082 277.386C86.3105 293.479 87.372 343.735 87.2607 359.862C87.2607 367.566 87.2607 375.167 87.8685 382.811C88.1167 386.235 88.6303 389.599 89.1781 392.955Z" fill="black"/>
<path opacity="0.1" d="M87.1581 243.052C87.1581 242.782 87.0507 242.523 86.8597 242.332C86.6687 242.141 86.4096 242.033 86.1394 242.033C85.8692 242.033 85.6102 242.141 85.4191 242.332C85.2281 242.523 85.1208 242.782 85.1208 243.052C84.3117 251.126 84.3634 259.264 85.2749 267.328C85.2919 267.467 85.3592 267.595 85.4641 267.688C85.5689 267.78 85.7041 267.832 85.8441 267.832C85.9841 267.832 86.1192 267.78 86.2241 267.688C86.329 267.595 86.3963 267.467 86.4133 267.328C87.0724 259.282 87.1837 251.115 87.1581 243.052Z" fill="black"/>
<path opacity="0.1" d="M73.2479 237.514C73.1701 237.248 73.0079 237.013 72.7856 236.847C72.5634 236.68 72.293 236.59 72.0152 236.59C71.7374 236.59 71.4671 236.68 71.2448 236.847C71.0226 237.013 70.8604 237.248 70.7826 237.514C69.2503 246.639 69.0706 256.047 68.0006 265.249C66.8878 274.665 65.6295 318.321 63.9517 327.608C60.5962 346.184 56.2477 364.605 51.1887 382.778C51.009 383.428 51.9934 383.882 52.3015 383.248C60.6777 365.958 66.6618 347.608 70.0892 328.704C71.8012 319.451 73.0938 275.855 73.6416 266.456C74.1895 257.057 74.8315 246.922 73.2479 237.514Z" fill="black"/>
<path opacity="0.1" d="M74.917 361.763C74.917 366.342 74.917 370.939 74.7886 375.527C74.6517 380.338 74.2237 385.123 73.8813 389.925C73.8042 390.884 73.7786 391.902 73.7358 392.955H68.2402C68.2402 391.688 68.2916 390.439 68.2916 389.3C68.2373 384.703 68.423 380.105 68.848 375.527C69.3188 370.939 70.0293 366.368 70.7569 361.831C71.4845 357.294 71.9467 352.21 73.4276 347.844C73.6074 347.305 74.5746 347.168 74.6688 347.844C75.3279 352.321 74.9427 357.226 74.917 361.763Z" fill="black"/>
<path opacity="0.1" d="M38.7513 317.275C35.1389 328.54 31.0473 339.634 27.5805 350.925L27.5034 351.173C28.7018 341.594 30.0714 330.817 31.4753 319.304C31.5865 318.996 31.6893 318.688 31.792 318.38C33.7094 312.585 35.6012 272.447 36.363 266.369C37.0068 260.34 36.9551 254.257 36.2089 248.239C36.2089 248.034 36.2089 247.82 36.1405 247.614C36.8681 241.751 37.6042 235.836 38.3318 229.912C40.0854 235.918 41.4042 242.043 42.278 248.239C43.8359 260.223 42.4492 305.754 38.7513 317.275Z" fill="black"/>
<path opacity="0.1" d="M108.798 194.311C108.413 193.036 108.087 191.743 107.754 190.536C106.584 186.354 105.643 182.11 104.937 177.825C103.587 169.558 102.889 161.197 102.849 152.821C102.777 144.437 103.306 136.058 104.432 127.749C105.014 123.469 105.811 119.189 106.752 114.909C106.94 114.053 107.12 113.137 107.317 112.195C107.163 126.91 107.856 158.505 108.798 194.311Z" fill="black"/>
<path opacity="0.1" d="M81.1659 135.359C81.0546 134.606 79.9504 134.854 79.899 135.53C79.3084 144.279 79.1457 153.087 78.7006 161.844C78.2555 170.404 77.6221 178.964 77.2882 187.524C76.9544 196.084 76.8431 204.644 77.2882 213.204C77.8158 221.654 78.9602 230.053 80.7122 238.336C80.8492 239.012 81.9192 238.85 81.9106 238.173C81.6881 220.891 82.7666 203.565 82.9121 186.274C83.032 169.488 83.6825 152.043 81.1659 135.359Z" fill="black"/>
<path opacity="0.1" d="M92.953 118.906C92.8931 118.35 92.0371 118.324 92.097 118.906C92.7805 135.221 92.5776 151.56 91.4892 167.853C90.4192 184.117 87.9454 200.064 90.0683 216.362C90.1624 217.09 91.2838 217.15 91.2581 216.362C91.0698 207.99 92.5592 199.747 93.6378 191.478C94.7205 183.643 95.4062 175.757 95.6922 167.853C96.1544 151.434 94.742 135.248 92.953 118.906Z" fill="black"/>
<path opacity="0.1" d="M112.282 342.785C111.494 339.001 110.75 335.209 110.005 331.426C108.293 322.814 106.376 279.946 105.725 271.189C105.074 262.432 106.067 253.727 107.009 245.072C107.865 237.505 108.721 229.964 109.577 222.414C109.996 236.829 110.433 251.398 110.887 265.385V265.488C110.887 266.652 110.887 267.825 110.989 268.989C110.985 269.026 110.985 269.063 110.989 269.1C111.452 283.19 111.888 330.835 112.282 342.785Z" fill="black"/>
<path opacity="0.1" d="M58.2083 113.77C53.2264 126.815 51.7626 141.496 52.8326 155.414C52.8925 156.125 54.0652 156.407 54.1765 155.594C56.0426 141.744 55.6916 127.706 59.3125 114.078C59.3258 113.942 59.2907 113.805 59.2134 113.693C59.1361 113.58 59.0214 113.498 58.8897 113.461C58.7579 113.424 58.6173 113.435 58.4927 113.491C58.3681 113.548 58.2674 113.647 58.2083 113.77Z" fill="black"/>
<path opacity="0.1" d="M73.3933 108.712C73.3933 108.567 73.3356 108.427 73.2329 108.325C73.1301 108.222 72.9908 108.164 72.8455 108.164C72.7002 108.164 72.5609 108.222 72.4581 108.325C72.3554 108.427 72.2977 108.567 72.2977 108.712C71.1592 125.729 70.7055 143.192 72.7257 160.175C72.7455 160.273 72.799 160.362 72.877 160.426C72.9551 160.49 73.0528 160.525 73.1537 160.525C73.2545 160.525 73.3522 160.49 73.4303 160.426C73.5083 160.362 73.5618 160.273 73.5817 160.175C74.6945 143.106 74.0268 125.781 73.3933 108.712Z" fill="black"/>
<path opacity="0.1" d="M55.409 79.6075C55.3045 79.4282 55.1331 79.2977 54.9325 79.2447C54.7318 79.1917 54.5183 79.2206 54.339 79.325C54.1596 79.4295 54.0291 79.6009 53.9761 79.8015C53.9231 80.0022 53.9521 80.2157 54.0565 80.395C60.5193 92.2164 62.9503 105.433 66.4171 118.282C66.4909 118.454 66.6191 118.597 66.7821 118.689C66.945 118.781 67.1337 118.818 67.3193 118.792C67.5048 118.767 67.677 118.682 67.8093 118.549C67.9417 118.417 68.027 118.245 68.0521 118.059C68.8482 104.132 62.6165 91.0608 55.409 79.6075Z" fill="black"/>
<path opacity="0.1" d="M102.643 50.9229C102.643 56.0589 100.332 61.7769 98.7912 66.4678C97.2365 71.616 95.2314 76.6172 92.7992 81.4136C90.6763 85.3683 87.569 89.46 83.3061 91.2404C79.0432 93.0209 75.2255 91.1463 71.6816 88.818C79.5312 90.2389 87.2266 84.8547 91.1642 77.7756C94.2629 72.126 99.1849 59.1233 102.643 50.9229Z" fill="black"/>
<path opacity="0.1" d="M97.3104 86.404C94.6706 89.9072 92.2575 93.5755 90.0857 97.3865C87.7955 100.936 85.9498 104.754 84.5902 108.754C83.5083 112.864 83.1036 117.123 83.3918 121.363C83.563 126.08 84.9241 130.214 85.8143 134.785C85.8999 135.23 86.6703 135.136 86.6189 134.674C86.2252 130.539 86.8586 126.114 86.9613 121.971C86.9525 117.87 87.4237 113.782 88.3652 109.79C90.4624 101.786 94.8793 94.6473 98.3804 87.2344C98.6885 86.5924 97.824 85.7535 97.3104 86.404Z" fill="black"/>
<path opacity="0.1" d="M80.3526 109.91C80.1814 106.127 80.0616 101.641 78.5807 98.1061C78.4009 97.6866 77.6477 97.5154 77.5449 98.1061C76.8858 101.907 77.5449 106.084 77.8189 109.91C78.1356 114.19 78.6064 118.522 78.9745 122.836C78.9901 122.953 79.0477 123.061 79.1367 123.139C79.2257 123.216 79.3399 123.259 79.4581 123.259C79.5763 123.259 79.6905 123.216 79.7795 123.139C79.8685 123.061 79.9261 122.953 79.9417 122.836C80.361 118.541 80.4983 114.223 80.3526 109.91Z" fill="black"/>
<path opacity="0.1" d="M69.2162 91.6852C69.1354 91.6032 69.0293 91.5508 68.9151 91.5363C68.8008 91.5218 68.685 91.5462 68.5863 91.6054C68.4875 91.6647 68.4115 91.7554 68.3706 91.863C68.3296 91.9706 68.3259 92.0889 68.3602 92.1988C69.7384 94.9038 70.329 97.8741 71.6045 100.588C71.6804 100.717 71.7966 100.818 71.9354 100.875C72.0742 100.932 72.2278 100.941 72.3727 100.902C72.5175 100.864 72.6456 100.778 72.7373 100.659C72.8289 100.541 72.879 100.395 72.8799 100.245C72.6916 97.1807 70.8769 94.1591 69.2162 91.6852Z" fill="black"/>
<path opacity="0.1" d="M115.62 77.5277C109.833 83.6138 104.372 90.6844 101.068 98.4569C97.216 107.513 97.8152 116.501 98.8081 126.063C98.8268 126.228 98.9056 126.381 99.0296 126.491C99.1535 126.602 99.3139 126.663 99.4801 126.663C99.6463 126.663 99.8066 126.602 99.9306 126.491C100.055 126.381 100.133 126.228 100.152 126.063C100.82 117.383 101.684 108.241 104.526 99.9634C107.257 91.9855 112.085 85.3258 117.007 78.5634C117.606 77.7759 116.305 76.8086 115.62 77.5277Z" fill="black"/>
<path opacity="0.1" d="M142.499 40.8906C141.54 42.2773 140.581 43.6127 139.759 44.8967C137.149 48.9713 134.495 53.0544 131.662 56.9749C126.998 63.3838 120.755 68.4767 113.54 71.758C122.468 63.0011 134.538 49.6475 142.499 40.8906Z" fill="black"/>
<path opacity="0.1" d="M133.647 64.4217C130.772 65.5238 128.062 67.0158 125.593 68.8558C123.692 70.2254 120.962 71.9032 120.32 74.2743C120.31 74.319 120.312 74.3654 120.325 74.4093C120.338 74.4532 120.361 74.4931 120.394 74.5254C120.426 74.5578 120.466 74.5815 120.51 74.5945C120.554 74.6074 120.6 74.6092 120.645 74.5996C123.033 74.2572 125.353 71.8176 127.21 70.388C129.479 68.676 131.867 66.964 134.058 65.0637C134.128 65.0031 134.174 64.9194 134.187 64.8279C134.2 64.7363 134.18 64.6431 134.13 64.5653C134.08 64.4874 134.004 64.43 133.916 64.4037C133.827 64.3773 133.732 64.3837 133.647 64.4217Z" fill="black"/>
<path opacity="0.1" d="M190.965 48.9453C179.991 52.7374 154.277 60.7496 140.093 65.7229C148.388 61.2888 157.402 58.1901 166.347 55.3482C174.308 52.8401 182.645 50.2721 190.965 48.9453Z" fill="black"/>
</g>
<path d="M78.1612 89.9484L78.983 83.5198L82.912 79.334L86.3189 82.2101L89.2036 89.9484L89.9826 110.775L86.7811 123.615L82.6467 128.323L79.2398 128.066L77.1426 124.925V117.743L79.8047 116.039L79.5051 120.465L80.2927 124.137L81.8591 124.659L85.0092 118.111L86.5757 107.625L84.4785 89.2893L83.1346 86.2077L78.1612 89.9484Z" fill="#455A64"/>
<path d="M130.865 392.904H92.5508C92.5508 392.904 92.6364 387.194 96.4028 385.688C97.4227 385.247 98.558 385.149 99.6384 385.408C100.719 385.667 101.686 386.27 102.395 387.126C102.395 387.126 103.927 376.64 110.955 376.64C117.983 376.64 121.338 385.688 121.338 385.688C121.933 384.823 122.768 384.152 123.74 383.755C124.711 383.358 125.778 383.253 126.808 383.453C130.711 383.924 130.865 392.904 130.865 392.904Z" fill="#455A64"/>
<path d="M389.882 392.904C389.882 392.904 387.528 381.939 382.838 380.252C378.147 378.566 375.288 383.479 375.288 383.479C375.288 383.479 374.183 373.002 367.532 369.869C360.881 366.736 355.882 373.156 355.882 373.156C355.882 373.156 350.746 359.862 341.655 359.862C332.565 359.862 327.959 379.311 327.959 379.311C327.959 379.311 322.584 373.516 317.062 376.785C311.541 380.055 311.516 392.904 311.516 392.904H389.882Z" fill="#37474F"/>
<path d="M195.699 392.904C195.699 392.904 194.372 388.282 191.718 387.571C190.949 387.37 190.139 387.391 189.381 387.632C188.624 387.873 187.95 388.324 187.438 388.932C187.438 388.932 186.805 384.524 183.038 383.205C181.915 382.839 180.716 382.774 179.559 383.016C178.403 383.258 177.33 383.798 176.447 384.584C176.447 384.584 173.563 378.985 168.401 378.985C163.239 378.985 160.628 387.177 160.628 387.177C160.628 387.177 157.581 384.738 154.457 386.116C151.332 387.494 151.341 392.904 151.341 392.904H195.699Z" fill="#37474F"/>
<path d="M104.107 392.904H25.6802C25.6802 392.904 28.2482 381.845 33.4612 381.066C38.6743 380.287 41.0796 385.405 41.0796 385.405C41.0796 385.405 40.8485 369.997 50.5555 367.361C60.2626 364.725 68.4288 378.352 68.4288 378.352C68.4288 378.352 74.515 370.588 82.8096 371.085C91.1042 371.581 93.2186 384.344 93.2186 384.344C93.2186 384.344 100.768 379.919 104.107 392.904Z" fill="#37474F"/>
<path d="M316.583 392.904H273.158C273.158 392.904 273.261 386.441 277.532 384.721C278.691 384.219 279.981 384.106 281.208 384.401C282.436 384.696 283.534 385.382 284.338 386.356C284.338 386.356 286.05 374.475 294.036 374.475C302.023 374.475 305.797 384.747 305.797 384.747C305.797 384.747 307.578 381.648 311.995 382.23C316.412 382.812 316.583 392.904 316.583 392.904Z" fill="#455A64"/>
<path d="M28.5562 392.955L74.9171 392.75L121.278 392.673L214 392.527L306.722 392.673L353.083 392.75L399.444 392.955L353.083 393.169L306.722 393.246L214 393.383L121.278 393.246L74.9171 393.169L28.5562 392.955Z" fill="#263238"/>
<path d="M214.642 189.792C211.218 189.972 207.837 190.058 204.439 190.126C201.04 190.195 197.591 190.186 194.226 190.22C190.862 190.255 187.378 190.22 184.023 190.126L178.887 190.006C177.175 189.938 175.463 189.895 173.751 189.792C175.463 189.698 177.175 189.655 178.887 189.587L184.023 189.467C187.447 189.399 190.871 189.399 194.226 189.364C197.582 189.33 201.032 189.364 204.439 189.467C207.845 189.57 211.244 189.621 214.642 189.792Z" fill="#263238"/>
<path d="M325.905 154.936C321.925 155.116 317.953 155.193 313.973 155.261C309.992 155.33 306.02 155.33 302.04 155.364C298.06 155.398 294.088 155.364 290.116 155.261L284.124 155.15C282.138 155.073 280.143 155.03 278.132 154.936C280.118 154.842 282.112 154.799 284.124 154.722L290.116 154.611C294.088 154.542 298.068 154.542 302.04 154.508C306.012 154.474 309.992 154.508 313.973 154.611C317.953 154.713 321.925 154.765 325.905 154.936Z" fill="#263238"/>
<path d="M332.128 159.764C329.56 159.943 326.924 160.02 324.322 160.089C321.719 160.157 319.117 160.183 316.515 160.192C313.913 160.2 311.31 160.192 308.708 160.097L304.805 159.978C303.504 159.9 302.237 159.858 300.901 159.764C302.202 159.669 303.469 159.627 304.805 159.558L308.708 159.438C311.276 159.361 313.913 159.344 316.515 159.336C319.117 159.327 321.719 159.336 324.322 159.438C326.924 159.541 329.56 159.584 332.128 159.764Z" fill="#263238"/>
<path d="M127.784 240.835C124.3 241.015 120.807 241.092 117.315 241.161C113.822 241.229 110.33 241.229 106.837 241.263C103.345 241.298 99.8525 241.263 96.36 241.169L91.1298 241.049C89.4178 240.972 87.6374 240.938 85.8911 240.835C87.6031 240.741 89.3836 240.698 91.1298 240.63L96.36 240.51C99.8525 240.442 103.345 240.442 106.837 240.407C110.33 240.373 113.822 240.407 117.315 240.51C120.807 240.613 124.3 240.664 127.784 240.835Z" fill="#263238"/>
<path d="M150.862 233.688C147.369 233.859 143.877 233.945 140.384 234.013C136.892 234.082 133.408 234.082 129.915 234.116C126.423 234.15 122.93 234.116 119.438 234.013L114.199 233.893C112.487 233.825 110.707 233.782 108.96 233.688C110.672 233.585 112.453 233.551 114.199 233.474L119.438 233.354C122.93 233.286 126.423 233.294 129.915 233.26C133.408 233.226 136.892 233.26 140.384 233.363C143.877 233.465 147.369 233.5 150.862 233.688Z" fill="#263238"/>
<path d="M208.248 200.022C203.497 200.202 198.746 200.279 193.995 200.347C189.244 200.416 184.494 200.416 179.743 200.45C174.992 200.484 170.241 200.45 165.499 200.356L158.368 200.236C155.997 200.159 153.618 200.125 151.247 200.022C153.618 199.928 155.997 199.885 158.368 199.816L165.499 199.697C170.241 199.628 174.992 199.628 179.743 199.594C184.494 199.56 189.244 199.594 193.995 199.697C198.746 199.799 203.497 199.851 208.248 200.022Z" fill="#263238"/>
<path d="M331.152 364.459C327.129 364.639 323.106 364.716 319.091 364.785C315.076 364.853 311.045 364.853 307.021 364.887C302.998 364.922 298.984 364.887 294.96 364.793L288.926 364.673C286.914 364.596 284.902 364.554 282.934 364.459C284.945 364.365 286.957 364.322 288.926 364.254L294.96 364.134C298.984 364.066 302.998 364.066 307.021 364.031C311.045 363.997 315.068 364.031 319.091 364.134C323.114 364.237 327.129 364.28 331.152 364.459Z" fill="#263238"/>
<path d="M319.468 369.656C313.784 369.827 308.1 369.912 302.416 369.981C296.732 370.049 291.048 370.041 285.365 370.084L268.305 369.981L259.745 369.861C256.903 369.792 254.061 369.75 251.185 369.656C254.026 369.553 256.868 369.51 259.745 369.442L268.305 369.322L285.365 369.228C291.048 369.228 296.732 369.228 302.416 369.322C308.1 369.416 313.784 369.476 319.468 369.656Z" fill="#263238"/>
<path d="M191.616 193.67C187.507 193.85 183.407 193.927 179.306 193.996C175.206 194.064 171.106 194.064 166.997 194.098C162.888 194.133 158.797 194.098 154.696 194.004L148.542 193.884C146.487 193.807 144.442 193.764 142.387 193.67C144.442 193.576 146.487 193.533 148.542 193.465L154.696 193.345C158.797 193.277 162.897 193.277 166.997 193.242C171.097 193.208 175.206 193.242 179.306 193.345C183.407 193.448 187.507 193.456 191.616 193.67Z" fill="#263238"/>
<path d="M288.044 123.555L289.799 110.082L294.986 111.777L297.323 101.094L302.819 102.968L296.116 114.704L291.665 112.744L288.044 123.555Z" fill="#455A64"/>
<path d="M294.104 124.489L302.51 117.418L304.094 120.448L311.242 117.315L312.996 120.534L302.853 123.676L302.04 120.329L294.104 124.489Z" fill="#455A64"/>
<path d="M284.132 121.278L278.671 112.487L282.138 111.194L278.183 103.773L281.616 101.487L284.577 112.222L281.402 113.18L284.132 121.278Z" fill="#455A64"/>
<path d="M274.674 132.303C274.28 131.957 273.824 131.69 273.33 131.516C271.07 130.762 268.707 131.738 266.841 132.988C264.847 134.323 263.023 136.215 260.644 136.84C259.716 137.131 258.715 137.073 257.827 136.677C257.379 136.407 256.993 136.043 256.698 135.61C256.402 135.177 256.204 134.686 256.115 134.169C255.833 133.099 255.722 131.764 254.789 131.028C254.386 130.753 253.923 130.579 253.44 130.518C252.956 130.457 252.465 130.511 252.007 130.677C249.635 131.362 248.369 133.878 246.545 135.351C244.596 136.945 242.207 137.909 239.697 138.115C237.955 138.239 236.207 137.992 234.567 137.39C232.928 136.788 231.435 135.845 230.187 134.623C229.288 133.716 228.604 132.629 227.748 131.687C227.374 131.203 226.904 130.801 226.368 130.506C225.832 130.212 225.241 130.031 224.632 129.975C223.673 129.975 220.677 131.867 219.153 135.924C219.042 136.215 218.528 135.993 218.528 135.659C218.526 135.018 218.566 134.377 218.648 133.741C218.964 131.119 219.899 128.608 221.375 126.418C222.852 124.227 224.828 122.418 227.14 121.141C229.643 119.792 232.437 119.075 235.28 119.052C236.86 119.13 238.444 119.069 240.014 118.873C241.379 118.613 242.659 118.026 243.746 117.161C245.861 115.543 247.564 113.428 249.961 112.179C252.119 111.081 254.517 110.54 256.937 110.604C259.421 110.673 261.861 111.277 264.091 112.373C266.321 113.469 268.29 115.031 269.863 116.955C273.013 120.756 274.896 132.492 274.674 132.303Z" fill="#263238"/>
<path d="M274.554 132.192C273.72 131.576 272.757 131.157 271.738 130.968C270.804 130.852 269.856 130.972 268.981 131.319C267.012 132.064 265.557 133.536 264.016 134.94C262.476 136.344 261.02 137.576 259.035 137.85C258.181 137.992 257.306 137.888 256.509 137.551C255.666 137.123 255.024 136.383 254.72 135.488C254.095 133.87 253.822 131.618 251.913 130.968C250.004 130.317 248.266 131.824 246.948 132.937C243.738 135.573 239.971 139.485 235.358 138.329C233.001 137.601 230.854 136.315 229.1 134.58C227.833 133.433 226.25 131.961 224.392 132.235C224.324 132.235 224.392 132.346 224.392 132.337C226.352 132.081 227.688 133.827 228.929 135.06C230.398 136.555 232.142 137.753 234.065 138.586C235.987 139.365 238.136 139.365 240.057 138.586C242.009 137.736 243.801 136.558 245.356 135.102C246.212 134.392 246.991 133.664 247.838 132.971C248.577 132.299 249.453 131.796 250.406 131.499C250.889 131.372 251.401 131.405 251.864 131.593C252.327 131.781 252.717 132.115 252.974 132.543C253.464 133.434 253.841 134.383 254.095 135.368C254.357 136.236 254.865 137.009 255.559 137.593C256.15 138.036 256.847 138.316 257.579 138.407C259.246 138.591 260.92 138.142 262.27 137.148C264.213 135.813 265.651 133.878 267.612 132.577C268.573 131.791 269.77 131.35 271.012 131.325C272.254 131.301 273.468 131.693 274.46 132.44C274.493 132.453 274.529 132.452 274.561 132.437C274.593 132.423 274.618 132.396 274.631 132.363C274.643 132.33 274.642 132.294 274.628 132.262C274.613 132.23 274.587 132.204 274.554 132.192Z" fill="#263238"/>
<path d="M269.914 114.746C266.764 110.809 261.465 109.2 256.586 110.013C253.862 110.497 251.292 111.62 249.088 113.291C247.016 114.824 245.107 116.715 242.736 117.742C240.1 118.924 237.292 118.444 234.51 118.393C232.262 118.355 230.032 118.799 227.97 119.694C223.964 121.462 220.819 124.742 219.222 128.819C219.018 129.331 218.844 129.854 218.7 130.386C218.7 130.399 218.705 130.412 218.715 130.422C218.724 130.432 218.737 130.437 218.751 130.437C218.765 130.437 218.778 130.432 218.787 130.422C218.797 130.412 218.802 130.399 218.802 130.386C219.443 128.311 220.501 126.389 221.911 124.737C223.322 123.086 225.054 121.739 227.003 120.781C228.896 119.8 230.97 119.218 233.098 119.069C235.717 118.915 238.353 119.532 240.964 119.069C243.404 118.598 245.441 117.049 247.333 115.517C249.291 113.745 251.538 112.321 253.975 111.305C256.31 110.43 258.834 110.184 261.294 110.593C263.753 111.002 266.062 112.05 267.988 113.634C272.268 117.323 273.467 123.05 273.929 128.46C273.989 129.179 274.049 129.898 274.1 130.617C274.096 130.627 274.095 130.638 274.096 130.649C274.098 130.66 274.102 130.671 274.108 130.68C274.114 130.689 274.123 130.696 274.133 130.701C274.142 130.706 274.153 130.709 274.164 130.709C274.175 130.709 274.186 130.706 274.196 130.701C274.206 130.696 274.214 130.689 274.22 130.68C274.227 130.671 274.231 130.66 274.232 130.649C274.234 130.638 274.232 130.627 274.228 130.617C274.032 125.147 273.475 119.198 269.914 114.746Z" fill="#263238"/>
<path d="M277.49 131.276C277.327 130.42 276.48 129.512 275.906 129.495C275.333 129.478 271.746 132.106 271.626 133.21C271.506 134.314 273.501 134.802 273.501 134.802L277.49 131.276Z" fill="#58A0DF"/>
<path d="M285.151 175.48C290.544 194.612 300.884 215.104 307.184 213.949C315.65 212.391 332.65 202.701 340.457 195.51C342.751 193.405 325.957 175.882 323.5 178.142C320.538 180.864 307.475 188.825 307.116 189.005C306.328 189.373 297.126 174.033 291.708 167.862C285.322 160.68 282.634 166.569 285.151 175.48Z" fill="#EB9481"/>
<path d="M351.619 184.16C349.188 188.739 340.551 196.144 337.778 197.145C335.004 198.147 321.908 183.877 322.37 180.881C322.832 177.885 332.257 163.119 337.119 161.022C341.981 158.925 354.136 179.418 351.619 184.16Z" fill="#EB9481"/>
<path d="M330.331 165.764C330.485 168.512 333.635 166.757 333.635 166.757C333.635 166.757 329.714 170.369 330.964 173.134C332.214 175.899 335.903 173.553 336.169 173.391C335.963 173.588 332.454 176.995 333.994 179.648C335.535 182.302 338.951 179.503 339.13 179.314C338.994 179.554 337.239 182.798 338.874 184.545C341.673 187.549 346.398 179.409 349.642 178.655C349.642 178.655 351.5 184.014 351.585 184.159C351.585 184.159 356.233 176.455 355.009 172.175C354.84 171.545 354.462 170.991 353.936 170.605C353.41 170.219 352.768 170.024 352.116 170.052C352.116 170.052 353.888 167.741 352.732 165.61C352.142 164.523 349.873 164.506 349.873 164.506C350.247 163.961 350.464 163.324 350.5 162.664C350.537 162.004 350.391 161.347 350.079 160.765C349.171 159.31 347.031 159.515 347.031 159.515C347.031 159.515 347.468 157.084 346.064 155.886C343.256 153.455 330.014 159.892 330.331 165.764Z" fill="#EB9481"/>
<path d="M346.732 159.472C346.774 159.472 346.732 159.387 346.732 159.395C341.659 160.471 337.034 163.066 333.472 166.834C333.361 166.954 333.515 167.185 333.66 167.073C337.626 163.919 342.029 161.358 346.732 159.472Z" fill="#263238"/>
<path d="M349.967 164.42C350.019 164.42 349.967 164.309 349.967 164.326C344.387 165.569 339.436 168.766 336.006 173.34C335.895 173.502 335.955 173.768 336.1 173.588C338.531 170.592 345.525 166.124 349.967 164.42Z" fill="#263238"/>
<path d="M339.044 179.76C342.468 175.317 346.92 172.415 351.944 170.087C352.013 170.087 351.944 169.967 351.944 169.984C349.171 170.446 346.124 172.261 343.872 173.879C341.751 175.335 340.048 177.321 338.933 179.64C338.848 179.7 338.976 179.82 339.044 179.76Z" fill="#263238"/>
<path d="M333.635 166.757C332.948 167.518 332.332 168.34 331.794 169.214C331.236 170.04 330.908 171 330.844 171.996C330.841 172.454 331.008 172.896 331.315 173.237C331.623 173.58 332.016 173.837 332.454 173.981C332.9 174.093 333.365 174.108 333.818 174.027C334.271 173.946 334.701 173.77 335.082 173.511L336.999 172.321L335.612 174.101C334.994 174.889 334.506 175.77 334.166 176.712C333.986 177.141 333.898 177.602 333.909 178.067C333.919 178.531 334.027 178.988 334.226 179.409C334.416 179.795 334.733 180.105 335.123 180.288C335.514 180.47 335.955 180.513 336.374 180.41C337.307 180.155 338.161 179.669 338.856 178.998L340.834 177.2L339.558 179.537C339.2 180.184 338.926 180.874 338.745 181.591C338.548 182.262 338.548 182.975 338.745 183.646C338.853 183.942 339.04 184.202 339.286 184.398C339.533 184.595 339.828 184.719 340.14 184.759C340.856 184.741 341.551 184.518 342.144 184.117C343.432 183.267 344.651 182.317 345.79 181.275C346.389 180.77 346.988 180.265 347.605 179.777C348.202 179.261 348.902 178.879 349.659 178.655C348.942 178.958 348.291 179.397 347.742 179.948C347.168 180.47 346.612 181.018 346.03 181.566C344.938 182.709 343.74 183.747 342.452 184.664C341.765 185.175 340.943 185.472 340.089 185.52C339.621 185.496 339.17 185.335 338.792 185.059C338.413 184.782 338.123 184.401 337.958 183.962C337.672 183.134 337.642 182.24 337.872 181.394C338.055 180.593 338.343 179.818 338.728 179.092L339.43 179.631C338.626 180.446 337.623 181.036 336.52 181.343C335.902 181.496 335.25 181.426 334.679 181.146C334.126 180.861 333.675 180.413 333.387 179.862C333.133 179.329 332.994 178.749 332.981 178.158C332.968 177.568 333.08 176.982 333.31 176.438C333.694 175.407 334.247 174.447 334.945 173.596L335.475 174.187C334.99 174.49 334.445 174.684 333.878 174.757C333.31 174.829 332.734 174.778 332.188 174.606C331.659 174.394 331.191 174.053 330.827 173.613C330.46 173.16 330.274 172.587 330.305 172.004C330.425 170.934 330.843 169.92 331.512 169.077C332.128 168.224 332.84 167.446 333.635 166.757Z" fill="#263238"/>
<path d="M321.779 179.983C321.779 179.983 322.901 158.018 331.272 162.64C333.763 164.018 342.323 172.655 340.628 174.41C338.428 176.679 334.174 173.742 331.803 171.474C331.803 171.474 332.471 178.998 327.369 181.027C326.431 181.384 325.413 181.475 324.427 181.291C323.441 181.107 322.525 180.654 321.779 179.983Z" fill="#EB9481"/>
<path d="M330.553 162.323C331.594 162.749 332.566 163.326 333.438 164.035C334.343 164.718 335.201 165.462 336.006 166.261C337.616 167.842 339.086 169.56 340.397 171.397C340.757 171.884 341.045 172.42 341.253 172.989C341.361 173.314 341.399 173.658 341.364 173.999C341.341 174.188 341.289 174.373 341.21 174.547C341.127 174.715 341.018 174.868 340.885 175.001C340.416 175.493 339.783 175.798 339.105 175.857C338.489 175.895 337.871 175.823 337.281 175.643C336.169 175.295 335.127 174.756 334.2 174.05C333.289 173.384 332.43 172.648 331.632 171.851L332.282 171.525C332.326 172.383 332.289 173.243 332.171 174.093C332.063 174.941 331.868 175.776 331.589 176.584C331.3 177.391 330.896 178.152 330.39 178.844C329.89 179.528 329.262 180.109 328.542 180.556C329.183 180.031 329.733 179.404 330.168 178.699C330.584 177.994 330.904 177.237 331.118 176.447C331.341 175.659 331.485 174.85 331.546 174.033C331.619 173.227 331.619 172.417 331.546 171.611L331.426 170.609L332.197 171.286C333.008 172.019 333.865 172.7 334.765 173.323C335.626 173.948 336.583 174.431 337.598 174.752C338.037 174.928 338.514 174.988 338.983 174.926C339.453 174.865 339.898 174.684 340.277 174.401C340.842 173.896 340.277 172.801 339.747 171.919C339.216 171.037 338.48 170.139 337.795 169.274C337.11 168.409 336.408 167.562 335.663 166.706C334.207 164.979 332.481 163.499 330.553 162.323Z" fill="#263238"/>
<path d="M293.608 200.227L292.41 206.57H253.205C253.205 206.57 259.334 174.444 273.689 164.917C280.871 160.149 287.385 162.246 290.604 167.587C291.408 168.94 299.609 183.115 299.378 189.912C299.155 195.904 293.608 200.227 293.608 200.227Z" fill="#EB9481"/>
<path d="M293.608 200.227L292.41 206.57L250.406 202.923C250.406 202.923 259.342 174.444 273.698 164.917C280.879 160.149 287.394 162.246 290.612 167.587C291.417 168.94 299.617 183.115 299.386 189.912C299.155 195.904 293.608 200.227 293.608 200.227Z" fill="#58A0DF"/>
<path d="M280.923 194.911C283.07 195.275 285.181 195.828 287.231 196.563C288.25 196.948 289.243 197.419 290.236 197.856C290.732 198.087 291.237 198.301 291.734 198.515C292.25 198.75 292.798 198.908 293.36 198.986C293.369 198.99 293.377 198.996 293.383 199.005C293.388 199.013 293.391 199.023 293.391 199.033C293.391 199.043 293.388 199.053 293.383 199.061C293.377 199.069 293.369 199.076 293.36 199.08C292.829 199.077 292.3 199.031 291.777 198.943C291.272 198.838 290.777 198.692 290.296 198.506C289.251 198.13 288.233 197.65 287.197 197.308C285.108 196.512 283.028 195.724 280.897 195.125C280.768 195.091 280.828 194.894 280.923 194.911Z" fill="#263238"/>
<path d="M275.487 196.879C277.265 196.755 279.05 196.755 280.828 196.879C281.684 196.948 282.6 197.076 283.473 197.23C283.901 197.307 284.329 197.393 284.731 197.487C285.134 197.581 285.639 197.761 286.101 197.847C286.152 197.847 286.101 197.949 286.101 197.941C285.664 197.872 285.245 197.889 284.774 197.847L283.447 197.727L280.794 197.487C279.022 197.299 277.259 197.145 275.478 197.033C275.375 197.042 275.392 196.879 275.487 196.879Z" fill="#263238"/>
<path d="M278.594 165.601C278.971 166.406 284.132 171.02 287.942 170.035C289.183 169.71 287.71 162.862 287.71 162.862V162.331L287.805 154.918L278.389 151.332L277.036 150.878C277.036 150.878 277.139 152.907 277.301 155.432V155.791C277.301 155.937 277.301 156.074 277.301 156.202C277.301 156.579 277.301 156.973 277.37 157.349C277.438 157.726 277.413 157.931 277.447 158.205L277.524 159.121C277.732 161.303 278.089 163.468 278.594 165.601Z" fill="#EB9481"/>
<path d="M287.813 154.936V157.187C285.531 160.57 282.212 163.121 278.355 164.454C278.115 163.222 277.79 161.176 277.576 159.164L277.499 158.257C277.499 157.949 277.439 157.666 277.421 157.401C277.404 157.135 277.37 156.63 277.353 156.254C277.353 156.117 277.353 155.98 277.353 155.834C277.353 155.689 277.353 155.595 277.353 155.475C277.19 152.907 277.079 150.921 277.079 150.921L278.432 151.366L287.813 154.936Z" fill="#263238"/>
<path d="M267.86 146.649C268.297 159.661 276.137 160.868 278.945 160.773C281.513 160.679 290.159 160.054 291.066 147.077C291.973 134.1 285.793 130.18 279.938 130.077C274.083 129.975 267.432 133.638 267.86 146.649Z" fill="#EB9481"/>
<path d="M276.283 133.373C276.057 134.525 276.185 135.719 276.651 136.797C278.234 139.647 281.727 138.663 283.011 139.75C284.295 140.837 283.952 143.046 285.04 144.073C286.555 145.494 287.453 144.355 287.753 145.357C288.053 146.358 288.917 149.543 290.235 149.877C291.554 150.21 296.185 128.357 279.313 130.06C279.313 130.06 276.856 129.136 273.441 131.293C268.579 134.357 268.125 141.06 268.125 141.06C268.699 140.889 269.231 140.597 269.683 140.204C270.453 139.433 270.83 138.877 271.395 138.372C272.294 137.584 272.901 138.064 273.835 137.293C275.255 136.104 276.283 133.373 276.283 133.373Z" fill="#263238"/>
<path d="M276.394 132.68C276.179 133.537 276.064 134.416 276.052 135.299C275.995 136.161 276.175 137.023 276.574 137.79C277.059 138.485 277.78 138.98 278.603 139.185C279.459 139.434 280.315 139.459 281.171 139.75C281.631 139.9 282.043 140.172 282.36 140.538C282.632 140.919 282.827 141.349 282.934 141.805C283.076 142.651 283.449 143.442 284.013 144.09C284.315 144.394 284.68 144.628 285.082 144.776C285.484 144.924 285.914 144.982 286.341 144.946C287.21 144.758 288.109 144.758 288.977 144.946C288.098 144.831 287.204 144.91 286.358 145.177C285.898 145.242 285.43 145.205 284.986 145.069C284.543 144.933 284.134 144.701 283.79 144.39C283.154 143.725 282.726 142.889 282.557 141.984C282.463 141.576 282.285 141.191 282.035 140.854C281.762 140.554 281.413 140.332 281.025 140.212C280.229 139.939 279.313 139.887 278.457 139.613C278.016 139.485 277.597 139.288 277.216 139.031C276.814 138.784 276.483 138.435 276.257 138.021C275.866 137.192 275.712 136.27 275.812 135.359C275.897 134.446 276.092 133.546 276.394 132.68Z" fill="#263238"/>
<path d="M276.112 133.441C275.996 134.262 275.769 135.062 275.436 135.821C275.118 136.622 274.566 137.308 273.852 137.79C273.491 138.001 273.109 138.176 272.714 138.312C272.371 138.45 272.075 138.682 271.858 138.98C271.667 139.349 271.44 139.699 271.181 140.024C270.893 140.33 270.538 140.567 270.146 140.717C270.487 140.494 270.778 140.202 271.002 139.861C271.222 139.521 271.409 139.16 271.558 138.783C271.794 138.403 272.141 138.105 272.551 137.927C272.925 137.788 273.286 137.617 273.629 137.413C274.277 136.963 274.796 136.353 275.136 135.641C275.51 134.931 275.836 134.196 276.112 133.441Z" fill="#263238"/>
<path d="M288.592 148.019C288.592 148.019 290.715 143.534 292.701 144.227C294.687 144.92 293.557 151.075 291.563 152.239C291.317 152.405 291.04 152.52 290.749 152.576C290.458 152.632 290.158 152.628 289.868 152.565C289.579 152.501 289.305 152.38 289.063 152.208C288.822 152.036 288.618 151.816 288.464 151.563L288.592 148.019Z" fill="#EB9481"/>
<path d="M292.333 145.981C292.333 145.981 292.384 146.024 292.333 146.041C290.937 146.897 290.381 148.421 290.073 149.953C290.136 149.793 290.232 149.648 290.355 149.527C290.478 149.407 290.626 149.313 290.787 149.254C290.949 149.194 291.121 149.169 291.293 149.18C291.465 149.192 291.633 149.239 291.785 149.32C291.794 149.324 291.802 149.33 291.807 149.339C291.813 149.347 291.816 149.357 291.816 149.367C291.816 149.377 291.813 149.387 291.807 149.395C291.802 149.403 291.794 149.41 291.785 149.414C291.509 149.374 291.227 149.42 290.978 149.548C290.73 149.675 290.527 149.877 290.398 150.124C290.182 150.541 290.013 150.98 289.893 151.434C289.85 151.58 289.594 151.545 289.619 151.383C289.328 149.448 290.321 146.529 292.333 145.981Z" fill="#263238"/>
<path d="M269.991 143.046C270.281 142.982 270.567 142.902 270.847 142.806C271.17 142.772 271.471 142.63 271.703 142.404C271.767 142.323 271.802 142.224 271.802 142.121C271.802 142.018 271.767 141.919 271.703 141.839C271.551 141.703 271.364 141.613 271.163 141.576C270.962 141.54 270.755 141.56 270.565 141.633C270.154 141.717 269.789 141.948 269.538 142.284C269.488 142.361 269.461 142.451 269.46 142.543C269.459 142.635 269.483 142.725 269.53 142.804C269.577 142.883 269.645 142.948 269.726 142.99C269.808 143.033 269.9 143.052 269.991 143.046Z" fill="#263238"/>
<path d="M279.244 142.259C278.953 142.198 278.667 142.115 278.388 142.011C278.063 141.975 277.76 141.826 277.532 141.591C277.47 141.51 277.436 141.411 277.436 141.309C277.436 141.206 277.47 141.107 277.532 141.026C277.689 140.895 277.879 140.809 278.08 140.776C278.282 140.743 278.489 140.764 278.679 140.838C279.091 140.93 279.453 141.171 279.698 141.514C279.743 141.591 279.766 141.679 279.765 141.768C279.764 141.858 279.739 141.945 279.692 142.021C279.646 142.097 279.58 142.16 279.501 142.201C279.422 142.243 279.334 142.263 279.244 142.259Z" fill="#263238"/>
<path d="M276.899 146.77C276.899 146.77 276.968 146.77 276.968 146.847C276.968 147.703 277.087 148.755 277.892 149.038V149.089C276.899 148.944 276.745 147.608 276.899 146.77Z" fill="#263238"/>
<path d="M277.678 145.836C279.108 145.708 279.253 148.567 277.935 148.687C276.617 148.807 276.488 145.939 277.678 145.836Z" fill="#263238"/>
<path d="M278.251 145.957C278.508 146.102 278.765 146.376 279.107 146.393C279.45 146.41 279.707 146.094 279.912 145.794H279.963C280.006 146.342 279.818 146.915 279.236 147.027C278.654 147.138 278.294 146.658 278.132 146.119C278.063 146.051 278.149 145.897 278.251 145.957Z" fill="#263238"/>
<path d="M271.977 146.804C271.977 146.804 271.909 146.847 271.909 146.881C271.994 147.737 271.909 148.79 271.155 149.132C271.155 149.132 271.155 149.192 271.155 149.183C272.131 148.987 272.208 147.625 271.977 146.804Z" fill="#263238"/>
<path d="M271.13 145.922C269.7 145.922 269.76 148.764 271.078 148.781C272.397 148.798 272.328 145.939 271.13 145.922Z" fill="#263238"/>
<path d="M270.496 146.119C270.274 146.282 270.06 146.556 269.786 146.582C269.512 146.607 269.238 146.308 269.033 146.017H268.99C268.99 146.564 269.178 147.129 269.709 147.224C270.24 147.318 270.565 146.838 270.65 146.291C270.702 146.213 270.625 146.059 270.496 146.119Z" fill="#263238"/>
<path d="M277.901 154.208C277.704 154.43 277.524 154.738 277.207 154.798C276.877 154.82 276.545 154.776 276.231 154.67C276.231 154.67 276.18 154.67 276.231 154.713C276.375 154.875 276.56 154.996 276.766 155.062C276.972 155.128 277.193 155.138 277.404 155.089C277.58 155.023 277.732 154.907 277.842 154.755C277.952 154.602 278.014 154.421 278.02 154.233C278.024 154.217 278.021 154.201 278.012 154.187C278.003 154.174 277.989 154.164 277.973 154.161C277.957 154.157 277.941 154.16 277.927 154.169C277.914 154.178 277.904 154.192 277.901 154.208Z" fill="#263238"/>
<path d="M273.45 150.724C273.45 150.724 273.321 152.051 273.347 152.675C274.569 152.634 275.79 152.763 276.976 153.061C277.259 153.138 277.242 152.907 276.925 152.735C275.988 152.228 274.921 152.01 273.86 152.11C273.809 151.939 274.1 150.065 273.997 150.065C273.515 150.129 273.043 150.256 272.594 150.441C272.782 147.659 273.45 144.937 273.569 142.164C273.569 142.141 273.56 142.119 273.544 142.103C273.528 142.087 273.506 142.078 273.484 142.078C273.461 142.078 273.439 142.087 273.423 142.103C273.407 142.119 273.398 142.141 273.398 142.164C272.629 145.068 272.153 148.041 271.977 151.04C271.943 151.357 273.21 150.844 273.45 150.724Z" fill="#263238"/>
<path d="M274.862 152.702C274.862 152.702 275.53 154.183 276.471 154.277C277.558 154.397 277.849 153.07 276.634 152.565C276.042 152.448 275.429 152.495 274.862 152.702Z" fill="#263238"/>
<path d="M275.358 153.514C275.615 153.904 276.015 154.178 276.471 154.276C276.58 154.301 276.693 154.302 276.802 154.28C276.911 154.258 277.014 154.212 277.104 154.146C277.194 154.08 277.269 153.996 277.324 153.899C277.379 153.802 277.412 153.694 277.421 153.583C276.283 153.001 275.675 153.223 275.358 153.514Z" fill="#FF99BA"/>
<path d="M273.552 164.463C255.884 154.936 236.427 153.001 232.533 154.936C225.008 158.608 217.501 183.843 213.855 192.848C212.716 195.655 236.667 197.419 237.823 194.406C238.97 191.53 243.293 173.16 243.592 172.903C244.226 172.355 264.461 174.204 270.984 174.435C277.344 174.624 281.308 168.632 273.552 164.463Z" fill="#EB9481"/>
<path d="M229.408 220.146C228.701 220.184 227.999 220.005 227.397 219.633C226.794 219.262 226.319 218.715 226.036 218.066C225.078 218.79 223.897 219.157 222.697 219.101C220.592 218.904 219.975 215.506 219.975 215.506C218.825 216.054 217.536 216.242 216.277 216.045C214.283 215.652 213.144 212.288 213.144 212.288C211.811 212.203 210.553 211.641 209.601 210.704C207.152 208.136 208.539 202.829 209.387 199.465C210.234 196.101 215.789 187.361 216.68 185.589L238.336 190.888C238.336 190.888 238.824 207.049 237.266 210.858C235.957 214.051 232.105 219.897 229.408 220.146Z" fill="#EB9481"/>
<path d="M226.429 217.997C228.646 214.915 229.853 211.354 231.214 207.862C231.214 207.785 231.12 207.734 231.095 207.811C229.759 211.303 227.748 214.479 226.275 217.911C226.27 217.921 226.266 217.933 226.265 217.944C226.263 217.956 226.264 217.967 226.268 217.978C226.271 217.99 226.276 218 226.283 218.009C226.29 218.018 226.299 218.026 226.309 218.031C226.32 218.037 226.331 218.04 226.342 218.042C226.354 218.043 226.365 218.042 226.376 218.039C226.388 218.036 226.398 218.03 226.407 218.023C226.416 218.016 226.424 218.007 226.429 217.997Z" fill="#263238"/>
<path d="M220.283 215.506C220.716 214.765 221.049 213.971 221.276 213.144C221.576 212.288 221.85 211.432 222.132 210.524C222.663 208.812 223.159 206.998 223.596 205.217C223.596 205.14 223.502 205.089 223.476 205.174C222.945 206.921 222.375 208.658 221.764 210.387C221.456 211.243 221.148 212.099 220.831 212.955C220.475 213.744 220.211 214.571 220.043 215.421C220.044 215.448 220.054 215.474 220.07 215.497C220.086 215.519 220.108 215.535 220.134 215.545C220.16 215.554 220.188 215.555 220.215 215.548C220.241 215.541 220.265 215.527 220.283 215.506Z" fill="#263238"/>
<path d="M213.196 212.236C213.58 211.556 213.846 210.815 213.983 210.045C214.206 209.24 214.437 208.436 214.668 207.631C215.139 206.03 215.61 204.421 216.14 202.838C216.14 202.76 216.038 202.709 216.012 202.786C215.473 204.395 214.908 206.005 214.386 207.614C214.12 208.41 213.872 209.206 213.615 210.002C213.316 210.705 213.148 211.456 213.119 212.219L213.196 212.236Z" fill="#263238"/>
<path d="M275.915 166.004C278.483 167.117 278.063 171.568 276.694 175.745C275.324 179.923 269.426 183.389 267.612 182.105C265.797 180.821 266.011 174.658 267.612 172.236C269.212 169.813 273.116 164.789 275.915 166.004Z" fill="#EB9481"/>
<path d="M266.798 174.17C267.341 174.075 267.895 174.06 268.442 174.127C269 174.175 269.548 174.305 270.068 174.512C269.52 174.585 268.964 174.585 268.416 174.512C267.864 174.474 267.319 174.358 266.798 174.17Z" fill="#263238"/>
<path d="M268.159 174.333C268.656 174.598 269.109 174.812 269.597 175.095C269.314 175.097 269.035 175.03 268.784 174.898C268.529 174.769 268.313 174.574 268.159 174.333Z" fill="#263238"/>
<path d="M291.896 206.587C291.896 206.587 291.28 226.677 284.612 238.002C284.612 238.002 253.65 299.412 235.674 302.904C220.446 305.866 165.362 263.614 165.362 263.614L184.006 236.983C184.006 236.983 192.241 242.522 205.449 249.746C216.363 255.738 225.745 262.467 225.993 261.962C230.127 254.523 248.138 232.969 248.052 231.531C246.982 213.555 254.044 206.587 254.044 206.587H291.896Z" fill="#EB9481"/>
<path d="M123.898 264.401C124.403 262.535 153.472 218.922 155.638 217.963C156.494 217.587 191.727 242.419 191.727 242.419L174.205 269.34L151.726 254.848C151.726 254.848 133.639 266.216 131.148 267.072C128.657 267.928 123.393 266.267 123.898 264.401Z" fill="#EB9481"/>
<path d="M123.906 264.401C124.403 262.535 153.472 218.913 155.638 217.963C156.032 217.783 167.16 225.359 173.811 229.947L155.835 257.493L151.76 254.865C151.76 254.865 133.639 266.216 131.148 267.072C128.657 267.928 123.393 266.259 123.906 264.401Z" fill="#EBEBEB"/>
<path d="M123.804 264.607C124.309 262.749 153.267 218.571 155.424 217.612C156.28 217.244 162.829 221.67 169.839 227.191L151.658 255.302C151.658 255.302 133.493 266.43 131.02 267.235C128.546 268.039 123.264 266.464 123.804 264.607Z" fill="#58A0DF"/>
<path d="M125.952 265.146C130.985 257.981 150.588 228.612 155.056 221.156C155.056 221.088 155.056 221.062 155.005 221.156C149.869 228.15 130.506 257.673 125.901 265.095C125.738 265.223 125.832 265.291 125.952 265.146Z" fill="#263238"/>
<path d="M134.443 265.479C135.005 264.685 135.395 263.782 135.588 262.828C135.781 261.875 135.773 260.891 135.565 259.941C135.203 258.231 134.202 256.725 132.766 255.729C132.766 255.729 132.663 255.781 132.706 255.815C133.988 257.018 134.846 258.604 135.15 260.336C135.454 262.068 135.188 263.852 134.392 265.419C134.382 265.42 134.373 265.422 134.365 265.428C134.356 265.433 134.35 265.441 134.346 265.45C134.342 265.459 134.341 265.468 134.342 265.478C134.343 265.488 134.347 265.497 134.354 265.504C134.36 265.512 134.368 265.517 134.378 265.52C134.387 265.523 134.397 265.523 134.407 265.52C134.416 265.518 134.424 265.512 134.431 265.505C134.437 265.498 134.442 265.489 134.443 265.479Z" fill="#263238"/>
<path d="M149.406 257.099C151.384 254.215 152.608 250.149 151.427 246.75C151.384 246.622 151.196 246.69 151.187 246.802C150.824 250.239 150.095 253.628 149.013 256.911C149 256.961 149.005 257.013 149.027 257.06C149.049 257.107 149.086 257.144 149.132 257.166C149.179 257.189 149.231 257.194 149.281 257.182C149.331 257.17 149.376 257.14 149.406 257.099Z" fill="#263238"/>
<path d="M147.027 258.768C149.012 255.884 150.228 251.818 149.055 248.419C149.004 248.282 148.824 248.351 148.807 248.471C148.447 251.909 147.718 255.298 146.633 258.58C146.62 258.63 146.625 258.683 146.647 258.729C146.669 258.776 146.706 258.813 146.753 258.836C146.799 258.858 146.852 258.863 146.902 258.851C146.952 258.839 146.996 258.81 147.027 258.768Z" fill="#263238"/>
<path d="M144.664 260.429C146.642 257.545 147.866 253.479 146.684 250.08C146.684 249.952 146.453 250.02 146.445 250.132C146.078 253.564 145.346 256.947 144.262 260.224C144.235 260.277 144.23 260.339 144.248 260.396C144.267 260.453 144.307 260.501 144.36 260.528C144.414 260.555 144.476 260.56 144.533 260.542C144.59 260.523 144.637 260.483 144.664 260.429Z" fill="#263238"/>
<path d="M142.276 262.099C144.262 259.214 145.478 255.148 144.305 251.75C144.254 251.621 144.074 251.681 144.057 251.801C143.699 255.248 142.97 258.646 141.882 261.936C141.878 261.984 141.889 262.031 141.913 262.072C141.938 262.113 141.975 262.145 142.019 262.163C142.063 262.182 142.112 262.185 142.158 262.174C142.205 262.162 142.246 262.136 142.276 262.099Z" fill="#263238"/>
<path d="M160.697 227.61C162.863 224.34 157.77 220.959 155.604 224.246C153.438 227.533 158.523 230.897 160.697 227.61Z" fill="#263238"/>
<path d="M155.082 265.437C157.29 264.769 157.324 262.107 156.665 260.361C155.72 257.994 154.295 255.849 152.479 254.061C152.231 253.804 151.966 253.564 151.709 253.333L151.366 253.042L151.272 252.982L150.99 252.751C150.978 252.742 150.963 252.736 150.948 252.734C150.933 252.732 150.918 252.734 150.904 252.739C150.889 252.744 150.877 252.752 150.866 252.763C150.856 252.774 150.848 252.788 150.844 252.802C150.763 252.769 150.674 252.762 150.589 252.78C150.503 252.798 150.425 252.842 150.365 252.905C150.332 252.938 150.307 252.976 150.289 253.019C150.271 253.062 150.262 253.107 150.262 253.153C150.262 254.009 150.262 254.865 150.262 255.721C150.254 255.87 150.254 256.018 150.262 256.166C150.156 258.263 150.399 260.364 150.981 262.381C151.512 264.067 152.993 266.053 155.082 265.437ZM151.272 257.733C151.272 257.014 151.23 256.295 151.204 255.576C151.178 254.857 151.204 254.36 151.127 253.753C151.132 253.67 151.132 253.587 151.127 253.504C151.127 253.427 151.127 253.342 151.127 253.265L151.264 253.444C151.555 253.838 151.837 254.215 152.12 254.591C152.915 255.611 153.652 256.674 154.328 257.776C154.801 258.534 155.222 259.323 155.587 260.138C156.126 261.414 156.648 265.899 153.284 264.076C151.444 263.091 151.341 259.505 151.272 257.733Z" fill="#263238"/>
<path d="M150.725 253.487C150.726 253.502 150.73 253.516 150.737 253.528C150.743 253.541 150.753 253.552 150.764 253.561C150.775 253.57 150.788 253.576 150.802 253.58C150.816 253.583 150.831 253.584 150.845 253.581C150.936 253.567 151.025 253.541 151.11 253.504C151.147 253.512 151.185 253.512 151.221 253.504C151.38 253.481 151.536 253.438 151.684 253.376C152.252 253.216 152.807 253.012 153.344 252.768C155.49 251.874 157.446 250.579 159.105 248.951C160.423 247.624 161.451 245.176 159.704 243.686C159.645 243.63 159.579 243.581 159.507 243.541C157.881 242.368 155.861 243.541 154.688 244.825C153.509 246.218 152.553 247.786 151.855 249.473C151.333 250.628 150.853 251.81 150.331 252.939C150.311 253.002 150.306 253.068 150.316 253.133C150.326 253.198 150.352 253.259 150.39 253.313C150.428 253.366 150.478 253.41 150.537 253.44C150.595 253.47 150.659 253.486 150.725 253.487ZM153.13 249.147C153.909 247.547 155.45 244.302 157.547 244.131C158.036 244.06 158.535 244.119 158.994 244.302C160.62 245.056 158.891 247.863 158.052 248.651C157.393 249.259 156.689 249.817 155.947 250.32C155.399 250.714 154.834 251.073 154.235 251.416C153.284 251.981 152.317 252.494 151.358 253.042L151.179 253.153C151.213 253.095 151.245 253.035 151.273 252.974C151.358 252.82 151.435 252.674 151.512 252.511C152.069 251.399 152.574 250.269 153.13 249.147Z" fill="#263238"/>
<path d="M254.035 206.587H291.896C291.896 206.587 291.468 223.099 287.702 233.705C283.935 244.311 271.438 264.179 271.438 264.179L237.001 244.371L246.777 230.957C246.777 230.957 245.167 217.664 254.035 206.587Z" fill="#37474F"/>
<path d="M235.486 239.141L230.795 249.746L270.907 271.814L276.822 261.91L235.486 239.141Z" fill="#455A64"/>
<path d="M287.659 233.688C284.928 241.392 277.635 253.915 273.826 260.224L276.822 261.876L270.907 271.78L267.731 270.068L261.679 258.572L257.956 251.518L246.699 230.17C246.519 227.148 246.459 216.063 254.035 206.587H291.896C291.896 206.587 291.425 223.099 287.659 233.688Z" fill="#263238"/>
<path d="M399.068 362.618C397.861 364.125 353.802 392.536 351.44 392.578C350.541 392.578 328.097 355.77 328.097 355.77L354.907 338.068L369.741 360.324C369.741 360.324 390.876 357.089 393.478 357.345C396.08 357.602 400.275 361.112 399.068 362.618Z" fill="#EB9481"/>
<path d="M399.059 362.618C397.861 364.125 353.802 392.536 351.44 392.578C351.012 392.578 343.821 381.194 339.55 374.354L367.053 356.275L369.741 360.307C369.741 360.307 390.867 357.071 393.469 357.328C396.071 357.585 400.274 361.112 399.059 362.618Z" fill="#EBEBEB"/>
<path d="M399.239 362.473C398.032 363.971 353.871 392.938 351.499 392.955C350.601 392.955 346.321 386.278 342.083 378.403L369.972 359.879C369.972 359.879 391.072 356.909 393.657 357.157C396.243 357.406 400.437 360.967 399.239 362.473Z" fill="#58A0DF"/>
<path d="M397.475 361.121C390.011 365.683 360.316 384.797 353.288 389.874C353.228 389.916 353.288 389.951 353.288 389.916C360.787 385.559 390.319 366.205 397.526 361.24C397.706 361.138 397.629 361.026 397.475 361.121Z" fill="#263238"/>
<path d="M389.823 357.423C388.992 357.928 388.276 358.601 387.719 359.398C387.162 360.196 386.776 361.1 386.587 362.054C386.22 363.763 386.526 365.548 387.443 367.036C387.443 367.079 387.554 367.036 387.529 366.984C386.838 365.368 386.69 363.571 387.109 361.864C387.527 360.156 388.489 358.631 389.849 357.517C389.855 357.51 389.859 357.501 389.861 357.492C389.863 357.482 389.862 357.473 389.86 357.463C389.857 357.454 389.853 357.446 389.846 357.439C389.84 357.432 389.832 357.426 389.823 357.423Z" fill="#263238"/>
<path d="M372.763 359.143C369.801 361 367.053 364.236 366.771 367.822C366.771 367.968 366.959 367.976 367.019 367.874C368.71 364.866 370.719 362.048 373.011 359.468C373.032 359.43 373.042 359.386 373.039 359.343C373.036 359.3 373.02 359.258 372.994 359.223C372.967 359.189 372.931 359.163 372.89 359.148C372.849 359.134 372.805 359.132 372.763 359.143Z" fill="#263238"/>
<path d="M375.604 358.561C372.643 360.419 369.895 363.697 369.612 367.25C369.612 367.386 369.801 367.395 369.861 367.292C371.553 364.288 373.562 361.473 375.853 358.895C375.877 358.857 375.889 358.812 375.887 358.767C375.886 358.722 375.87 358.679 375.843 358.642C375.817 358.606 375.779 358.579 375.737 358.565C375.694 358.55 375.648 358.549 375.604 358.561Z" fill="#263238"/>
<path d="M378.455 357.979C375.485 359.837 372.745 363.115 372.463 366.668C372.463 366.804 372.651 366.822 372.711 366.719C374.401 363.71 376.41 360.892 378.703 358.313C378.727 358.275 378.74 358.23 378.738 358.185C378.736 358.14 378.721 358.097 378.694 358.06C378.667 358.024 378.63 357.997 378.587 357.983C378.544 357.968 378.498 357.967 378.455 357.979Z" fill="#263238"/>
<path d="M381.297 357.405C378.326 359.262 375.587 362.541 375.305 366.085C375.305 366.222 375.493 366.239 375.553 366.136C377.243 363.127 379.252 360.309 381.545 357.73C381.572 357.693 381.586 357.648 381.585 357.602C381.584 357.557 381.569 357.512 381.541 357.476C381.513 357.439 381.475 357.413 381.431 357.4C381.387 357.387 381.34 357.389 381.297 357.405Z" fill="#263238"/>
<path d="M350.652 381.682C347.357 383.822 350.652 388.949 353.982 386.818C357.312 384.686 353.956 379.542 350.652 381.682Z" fill="#263238"/>
<path d="M370.879 349.248C368.594 348.974 367.498 351.396 367.404 353.263C367.325 355.81 367.777 358.346 368.731 360.71C368.859 361.052 369.005 361.377 369.15 361.686L369.347 362.088L369.415 362.191L369.587 362.507C369.594 362.52 369.605 362.53 369.618 362.537C369.63 362.544 369.645 362.548 369.659 362.548C369.674 362.548 369.688 362.544 369.701 362.537C369.714 362.53 369.724 362.52 369.732 362.507C369.794 362.569 369.872 362.611 369.957 362.628C370.043 362.645 370.131 362.635 370.211 362.601C370.256 362.586 370.297 362.561 370.331 362.529C370.365 362.496 370.391 362.457 370.408 362.413C370.734 361.643 371.085 360.855 371.436 360.068C371.504 359.939 371.555 359.802 371.615 359.665C372.548 357.782 373.161 355.757 373.43 353.673C373.584 351.901 373.045 349.505 370.879 349.248ZM371.307 357.808C371.042 358.484 370.768 359.152 370.502 359.811C370.237 360.47 370.057 360.949 369.843 361.523C369.843 361.609 369.783 361.694 369.766 361.763C369.749 361.831 369.706 361.908 369.681 361.985L369.629 361.771C369.518 361.3 369.415 360.838 369.287 360.367C368.966 359.118 368.715 357.852 368.534 356.575C368.403 355.688 368.331 354.793 368.32 353.896C368.32 352.518 369.646 348.195 372 351.208C373.284 352.835 371.941 356.164 371.307 357.808Z" fill="#263238"/>
<path d="M370.109 361.925C370.114 361.912 370.117 361.898 370.116 361.884C370.115 361.87 370.112 361.857 370.105 361.845C370.098 361.832 370.089 361.822 370.078 361.813C370.067 361.805 370.054 361.799 370.04 361.797C369.949 361.785 369.857 361.785 369.766 361.797C369.727 361.787 369.686 361.787 369.647 361.797C369.492 361.758 369.335 361.735 369.176 361.728C368.591 361.651 368.002 361.617 367.412 361.625C365.089 361.589 362.779 361.995 360.607 362.824C358.895 363.517 356.944 365.349 357.954 367.42C357.988 367.495 358.029 367.566 358.074 367.634C359.092 369.346 361.429 369.073 363.013 368.371C364.649 367.562 366.151 366.505 367.464 365.238C368.397 364.382 369.313 363.526 370.237 362.67C370.302 362.624 370.352 362.561 370.382 362.488C370.412 362.415 370.42 362.335 370.407 362.257C370.394 362.179 370.358 362.107 370.306 362.048C370.253 361.989 370.185 361.947 370.109 361.925ZM366.18 364.955C364.819 366.111 362.114 368.465 360.119 367.789C359.647 367.657 359.217 367.406 358.87 367.061C357.671 365.717 360.376 363.834 361.438 363.44C362.277 363.15 363.135 362.918 364.006 362.747C364.673 362.61 365.332 362.507 366.009 362.43C367.104 362.284 368.191 362.199 369.296 362.079H369.51C369.453 362.114 369.401 362.158 369.356 362.207C369.21 362.31 369.082 362.413 368.945 362.524C368.08 363.303 367.13 364.151 366.18 364.955Z" fill="#263238"/>
<path d="M355.702 338.925L328.096 355.728C328.096 355.728 263.554 254.523 254.711 239.937C243.583 221.61 254.035 206.553 254.035 206.553H292.401L293.437 221.002C296.604 226.129 355.702 338.925 355.702 338.925Z" fill="#EB9481"/>
<path d="M253.205 206.561H292.401L293.334 219.649L309.127 247.897L273.218 270.641C273.218 270.641 251.116 243.874 249.002 229.304C247.86 221.467 249.337 213.472 253.205 206.561Z" fill="#37474F"/>
<path d="M266.636 265.89L273.604 275.161L312.44 250.919L306.688 240.921L266.636 265.89Z" fill="#455A64"/>
<path d="M286.187 212.904C287.686 213.633 289.059 214.599 290.253 215.763C290.861 216.335 291.432 216.944 291.965 217.587C292.499 218.225 292.967 218.916 293.36 219.65C292.05 218.614 290.869 217.501 289.688 216.388C288.506 215.275 287.308 214.145 286.187 212.904Z" fill="#263238"/>
</svg>
