<svg width="35" height="35" viewBox="0 0 39 39" fill="none" xmlns="http://www.w3.org/2000/svg">
<rect x="0.5" y="0.485718" width="38" height="38" rx="19" fill="white"/>
<path d="M28.4468 9.66698C25.46 12.252 22.933 14.7127 20.6196 17.9232C19.5993 19.3393 18.4647 21.006 17.7231 22.5796C17.2997 23.414 16.5364 24.7178 16.2762 25.9714C14.8531 24.6473 13.3245 23.1446 11.7604 21.9675C10.6456 21.1288 7.43476 22.8387 8.74177 23.8221C11.0843 25.5841 13.0324 27.7786 15.3108 29.6191C16.2638 30.388 18.3759 28.7181 18.8722 28.0175C20.5013 25.7094 20.724 22.8879 21.9114 20.3702C23.7243 16.5196 26.9394 13.3565 30.1138 10.6097C32.217 8.64813 30.0448 8.28633 28.45 9.66698" fill="#58A0DF"/>
</svg>
