<svg width="47" height="48" viewBox="0 0 64 65" fill="none" xmlns="http://www.w3.org/2000/svg">
<g clip-path="url(#clip0_1207_588)">
<path d="M34.0078 64.4494V37.1745L55.8053 25.0348V52.7826L34.0078 64.4494Z" fill="#58A0DF" stroke="#525252" stroke-width="0.298595"/>
<path d="M33.7039 15.928L12.2051 26.5281L34.3011 37.1282L55.8 24.8858L33.7039 15.928Z" stroke="#525252" stroke-width="0.298595"/>
<path d="M34.0034 37.1281L33.8541 64.4496L12.0566 53.5509V26.8266L34.0034 37.1281Z" fill="#58A0DF" stroke="#525252" stroke-width="0.298595"/>
<path d="M2.6582 31.9029L12.2133 26.5282L33.5628 37.1283L23.2613 42.503L2.6582 31.9029Z" fill="#58A0DF" stroke="#525252" stroke-width="0.298595"/>
<path d="M34.1559 15.9271L12.3584 26.378L2.35547 21.1526L23.4064 10.7017L34.1559 15.9271Z" fill="#58A0DF" stroke="#525252" stroke-width="0.298595"/>
<path d="M55.9546 24.8855L34.0078 37.1279L44.4586 42.9505L65.3603 31.4546L55.9546 24.8855Z" fill="#58A0DF" stroke="#525252" stroke-width="0.298595"/>
<path d="M33.8609 15.7784L55.9569 24.8856L64.6163 16.5249L44.4611 8.61214L33.8609 15.7784Z" fill="#58A0DF" stroke="#525252" stroke-width="0.298595"/>
</g>
<defs>
<clipPath id="clip0_1207_588">
<rect width="64" height="65" fill="white"/>
</clipPath>
</defs>
</svg>
