<svg width="43" height="44" viewBox="0 0 64 65" fill="none" xmlns="http://www.w3.org/2000/svg">
<path d="M6.05651 43.8181L3.37109 42.4754L3.59488 57.2452L10.0846 57.0214V40.0137L6.05651 43.8181Z" fill="#58A0DF"/>
<path d="M18.5885 22.559L3.37109 37.105L6.05651 40.0142L18.5885 28.1536L30.2253 39.3428L55.513 14.7265L60.4362 19.2022V5.9989H47.0091L51.9324 12.0411L30.2253 33.3006L18.5885 22.559Z" fill="#58A0DF"/>
<path d="M18.1381 31.7334L13.2148 36.2091V56.7973H19.7046L19.9284 33.0761L18.1381 31.7334Z" fill="#58A0DF"/>
<path d="M23.2871 57.0211V36.4329L29.3293 42.0275V57.0211H23.2871Z" fill="#58A0DF"/>
<path d="M39.4007 33.9724L33.1348 40.0146V57.0223L39.4007 56.5747V33.9724Z" fill="#58A0DF"/>
<path d="M49.2453 24.3501L43.2031 30.1685V57.0227H49.4691L49.2453 24.3501Z" fill="#58A0DF"/>
<path d="M55.066 18.5302L53.0519 20.5442L52.8281 57.0211H59.0941V22.3345L55.066 18.5302Z" fill="#58A0DF"/>
<path d="M6.27969 44.19L3.42969 42.48V57.3L59.2897 56.73V22.53L55.2997 18.54L30.7897 43.62L18.2497 31.65L6.27969 44.19Z" fill="#58A0DF" stroke="#58A0DF" stroke-width="1.14"/>
</svg>
