<svg width="43" height="44" viewBox="0 0 64 65" fill="none" xmlns="http://www.w3.org/2000/svg">
<g clip-path="url(#clip0_1207_609)">
<path d="M11.0588 29.0625C14.3898 29.0625 17.098 25.9795 17.098 22.1875C17.098 18.3955 14.3898 15.3125 11.0588 15.3125C7.72782 15.3125 5.01961 18.3955 5.01961 22.1875C5.01961 25.9795 7.72782 29.0625 11.0588 29.0625ZM53.3333 29.0625C56.6643 29.0625 59.3726 25.9795 59.3726 22.1875C59.3726 18.3955 56.6643 15.3125 53.3333 15.3125C50.0023 15.3125 47.2941 18.3955 47.2941 22.1875C47.2941 25.9795 50.0023 29.0625 53.3333 29.0625ZM56.3529 32.5H50.3137C48.6529 32.5 47.1526 33.2627 46.058 34.498C49.8608 36.8721 52.5596 41.1582 53.1446 46.25H59.3726C61.0428 46.25 62.3922 44.7139 62.3922 42.8125V39.375C62.3922 35.583 59.6839 32.5 56.3529 32.5ZM32.1961 32.5C38.0371 32.5 42.7647 27.1182 42.7647 20.4687C42.7647 13.8193 38.0371 8.4375 32.1961 8.4375C26.355 8.4375 21.6275 13.8193 21.6275 20.4687C21.6275 27.1182 26.355 32.5 32.1961 32.5ZM39.4431 35.9375H38.6599C36.6972 37.0117 34.5174 37.6562 32.1961 37.6562C29.8748 37.6562 27.7044 37.0117 25.7322 35.9375H24.949C18.9475 35.9375 14.0784 41.4805 14.0784 48.3125V51.4062C14.0784 54.2529 16.1072 56.5625 18.6078 56.5625H45.7843C48.2849 56.5625 50.3137 54.2529 50.3137 51.4062V48.3125C50.3137 41.4805 45.4446 35.9375 39.4431 35.9375ZM18.3342 34.498C17.2396 33.2627 15.7392 32.5 14.0784 32.5H8.03922C4.70821 32.5 2 35.583 2 39.375V42.8125C2 44.7139 3.34939 46.25 5.01961 46.25H11.2381C11.8326 41.1582 14.5314 36.8721 18.3342 34.498Z" fill="#58A0DF"/>
</g>
<defs>
<clipPath id="clip0_1207_609">
<rect width="60.3922" height="55" fill="white" transform="translate(2 5)"/>
</clipPath>
</defs>
</svg>
